<?xml version="1.0" standalone="no"?>
<!DOCTYPE svg PUBLIC "-//W3C//DTD SVG 1.1//EN" "http://www.w3.org/Graphics/SVG/1.1/DTD/svg11.dtd" >
<svg xmlns="http://www.w3.org/2000/svg" xmlns:xlink="http://www.w3.org/1999/xlink" version="1.1">
<metadata>
Created by FontForge 20161013 at Fri Oct 21 05:22:14 2011
 By ,,,
Copyright (c) Christian Schwartz, 2007. All rights reserved.
</metadata>
<defs>
<font id="BBVAWebLight-Bold" horiz-adv-x="1229" >
  <font-face 
    font-family="BBVA Web Light"
    font-weight="600"
    font-stretch="normal"
    units-per-em="2048"
    panose-1="2 11 6 3 4 0 0 2 0 4"
    ascent="1638"
    descent="-410"
    x-height="1075"
    cap-height="1434"
    bbox="-383 -358 2390 1895"
    underline-thickness="102"
    underline-position="-307"
    unicode-range="U+0020-FB02"
  />
<missing-glyph horiz-adv-x="1024" 
 />
    <glyph glyph-name=".notdef" horiz-adv-x="1024" 
 />
    <glyph glyph-name=".null" horiz-adv-x="0" 
 />
    <glyph glyph-name="nonmarkingreturn" horiz-adv-x="614" 
 />
    <glyph glyph-name="space" unicode=" " horiz-adv-x="614" 
 />
    <glyph glyph-name="exclam" unicode="!" horiz-adv-x="582" 
d="M131 1257v177h320v-177l-62 -835h-196zM291 -12q-35 0 -66 12.5t-53.5 34.5t-35.5 52t-13 65q0 34 13 64.5t35.5 52.5t53.5 35t66 13q34 0 65 -13t53.5 -35t36 -52.5t13.5 -64.5q0 -35 -13.5 -65t-36 -52t-53.5 -34.5t-65 -12.5z" />
    <glyph glyph-name="quotedbl" unicode="&#x22;" horiz-adv-x="756" 
d="M53 1284v150h279v-150l-51 -309h-177zM424 1284v150h278v-150l-51 -309h-176z" />
    <glyph glyph-name="numbersign" unicode="#" 
d="M170 1073h186l54 361h208l-53 -361h197l53 361h209l-53 -361h155v-223h-188l-31 -217h154v-223h-187l-59 -410h-209l60 410h-197l-59 -410h-209l59 410h-156v223h189l31 217h-154v223zM502 633h196l31 217h-197z" />
    <glyph glyph-name="dollar" unicode="$" 
d="M698 1446q97 -8 175.5 -33.5t146.5 -62.5v-230h-100q-47 41 -102 71t-120 42v-385q109 -30 187.5 -65t129.5 -84t75 -116.5t24 -162.5q0 -189 -110.5 -299.5t-325.5 -130.5v-199h-182v195q-60 4 -111.5 12.5t-97.5 23t-88 34t-82 44.5v246h104q20 -23 47 -46t61.5 -43
t76 -35t90.5 -21v417q-95 29 -168.5 64.5t-124 84t-77 113.5t-26.5 152q0 93 30.5 165t85.5 123.5t131.5 82.5t168.5 41v121h182v-119zM840 383q0 41 -10.5 69.5t-31 49t-50.5 35.5t-70 28v-358q86 18 124 64.5t38 111.5zM360 1063q0 -63 37.5 -99t118.5 -65v332
q-80 -16 -118 -58t-38 -110z" />
    <glyph glyph-name="percent" unicode="%" horiz-adv-x="1638" 
d="M391 852q56 0 87.5 51.5t31.5 163.5q0 114 -32 164.5t-87 50.5q-56 0 -87.5 -50.5t-31.5 -164.5q0 -112 31.5 -163.5t87.5 -51.5zM391 684q-66 0 -127.5 24t-109.5 72t-76.5 120.5t-28.5 170.5q0 97 28.5 168.5t76.5 118.5t109.5 69.5t127.5 22.5t127.5 -22.5
t109.5 -69.5t76.5 -118.5t28.5 -168.5q0 -98 -28.5 -170.5t-76.5 -120.5t-109.5 -72t-127.5 -24zM201 -70l1009 1563h224l-1010 -1563h-223zM1247 152q56 0 87.5 51t31.5 164t-32 164t-87 51t-87 -51t-32 -164t32 -164t87 -51zM1247 -16q-66 0 -127.5 24t-109.5 72
t-76.5 120.5t-28.5 170.5q0 97 28.5 168.5t76.5 118.5t109.5 69.5t127.5 22.5t127.5 -22.5t109.5 -69.5t76.5 -118.5t28.5 -168.5q0 -98 -28.5 -170.5t-76.5 -120.5t-109.5 -72t-127.5 -24z" />
    <glyph glyph-name="ampersand" unicode="&#x26;" horiz-adv-x="1395" 
d="M950 119q-80 -65 -178 -100t-217 -35q-126 0 -221.5 29.5t-159.5 84t-96.5 132t-32.5 173.5q0 73 24 135t64.5 112.5t94.5 89.5t114 67q-37 59 -56.5 120.5t-19.5 139.5q0 84 31 154.5t91 121.5t147 79t198 28q114 0 189.5 -25.5t126.5 -62.5v-225h-109
q-15 15 -34.5 29.5t-45 26t-57 18t-70.5 6.5q-37 0 -67.5 -10.5t-53 -30t-35 -47.5t-12.5 -64q0 -27 6.5 -50.5t19.5 -46.5t33 -48t48 -56l297 -334q29 78 52 163t28 173h256v-65q-23 -130 -68 -245.5t-100 -211.5l231 -260v-84h-311zM608 207q57 0 106 18.5t91 53.5
l-342 383q-47 -41 -76 -94.5t-29 -133.5q0 -48 14.5 -89t45 -72t78 -48.5t112.5 -17.5z" />
    <glyph glyph-name="quotesingle" unicode="'" horiz-adv-x="385" 
d="M53 1284v150h279v-150l-51 -309h-177z" />
    <glyph glyph-name="parenleft" unicode="(" horiz-adv-x="690" 
d="M647 1319q-52 -18 -105.5 -58.5t-96.5 -111t-70 -176t-27 -254.5q0 -161 27 -271.5t70 -183t96.5 -112.5t105.5 -58v-194h-63q-64 15 -127.5 44.5t-121.5 76.5t-107.5 112.5t-86 151.5t-57.5 194t-21 240q0 191 45.5 331.5t119 237t167 152t189.5 78.5h63v-199z" />
    <glyph glyph-name="parenright" unicode=")" horiz-adv-x="690" 
d="M43 1518h63q96 -23 189.5 -78.5t167 -152t119 -237t45.5 -331.5q0 -132 -21 -240t-57.5 -194t-86 -151.5t-107.5 -112.5t-121.5 -76.5t-127.5 -44.5h-63v194q52 18 105.5 58t96.5 112.5t70 183t27 271.5q0 149 -27 254.5t-70 176t-96.5 111t-105.5 58.5v199z" />
    <glyph glyph-name="asterisk" unicode="*" horiz-adv-x="782" 
d="M457 1182l127 92l90 29l71 -218l-90 -28h-151l129 -94l55 -76l-186 -131l-56 78l-55 157l-55 -157l-55 -78l-187 131l56 76l129 94h-152l-90 28l72 218l90 -29l125 -92l-48 157v95h230v-95z" />
    <glyph glyph-name="plus" unicode="+" 
d="M741 590v-385h-249v385h-364v235h364v385h249v-385h364v-235h-364z" />
    <glyph glyph-name="comma" unicode="," horiz-adv-x="614" 
d="M137 -94q65 9 97 31.5t32 50.5q0 15 -5 23.5t-14 14.5t-21 11.5t-25 13.5q-29 20 -45.5 48.5t-16.5 74.5q0 31 12.5 57t34 45t51 30t64.5 11t67.5 -12t57 -36t39 -61t14.5 -87q0 -158 -83.5 -244t-258.5 -102v131v0z" />
    <glyph glyph-name="hyphen" unicode="-" horiz-adv-x="621" 
d="M74 731h473v-244h-473v244z" />
    <glyph glyph-name="period" unicode="." horiz-adv-x="614" 
d="M307 -12q-35 0 -66 12.5t-53.5 34.5t-35.5 52t-13 65q0 34 13 64.5t35.5 52.5t53.5 35t66 13q34 0 65 -13t53.5 -35t36 -52.5t13.5 -64.5q0 -35 -13.5 -65t-36 -52t-53.5 -34.5t-65 -12.5z" />
    <glyph glyph-name="slash" unicode="/" horiz-adv-x="721" 
d="M709 1456l-478 -1556h-225v61l477 1557h226v-62z" />
    <glyph glyph-name="zero" unicode="0" 
d="M614 -16q-110 0 -209 42.5t-174.5 132t-120 228t-44.5 330.5t44.5 330.5t120 228t174.5 132t209 42.5t209.5 -42.5t175 -132t120 -228t44.5 -330.5t-44.5 -330.5t-120 -228t-175 -132t-209.5 -42.5zM614 205q52 0 94 25t70.5 83.5t44 156t15.5 241.5t-15.5 242.5t-44 159
t-70.5 86.5t-94 26q-53 0 -94.5 -26t-70 -86.5t-43.5 -159t-15 -242.5t15 -241.5t43.5 -156t70 -83.5t94.5 -25z" />
    <glyph glyph-name="one" unicode="1" 
d="M535 0v1098l-263 -144h-82v213l451 267h213v-1434h-319z" />
    <glyph glyph-name="two" unicode="2" 
d="M1098 0h-989v252l401 387q70 67 119.5 121.5t80 101t44.5 88t14 84.5q0 82 -51.5 129t-153.5 47q-50 0 -94 -9.5t-82 -24.5t-70.5 -34.5t-58.5 -39.5h-100v215q35 23 81.5 46.5t101.5 43t116.5 31.5t126.5 12q118 0 211.5 -24t158 -74t99 -126t34.5 -179
q0 -77 -24 -144.5t-69.5 -133.5t-111 -133.5t-149.5 -143.5l-264 -242h629v-250z" />
    <glyph glyph-name="three" unicode="3" 
d="M528 -16q-73 0 -132.5 7.5t-109.5 21.5t-91 34t-76 45v225h117q18 -19 44.5 -37.5t60.5 -32.5t75.5 -23t89.5 -9q57 0 106 13t85 39t56.5 65t20.5 90q0 103 -63.5 149.5t-194.5 46.5h-106v224h90q268 0 268 192q0 90 -50.5 136.5t-150.5 46.5q-48 0 -90.5 -9t-79 -23.5
t-66 -32t-50.5 -34.5h-109v207q39 25 84.5 48t98 40t111.5 27t126 10q109 0 197 -22.5t150.5 -70t96 -120.5t33.5 -174q0 -68 -19.5 -120t-54 -90.5t-82 -65t-104.5 -44.5v-8q132 -23 207.5 -102.5t75.5 -220.5q1 -104 -41.5 -184t-118 -134t-179.5 -82t-225 -28z" />
    <glyph glyph-name="four" unicode="4" 
d="M694 0v303h-604v266l621 865h297v-908h157v-223h-157v-303h-314zM319 526h375v527h-8l-367 -518v-9z" />
    <glyph glyph-name="five" unicode="5" 
d="M1106 469q0 -114 -43.5 -204t-122 -152.5t-187.5 -95.5t-239 -33q-70 0 -126.5 7.5t-104 21t-87 32.5t-75.5 41v227h117q18 -18 44 -36t60 -32.5t76 -23t92 -8.5q59 0 110 16t88.5 47t58.5 77t21 106q0 61 -16 105.5t-44.5 72.5t-66.5 41.5t-81 13.5q-46 0 -81.5 -9
t-63 -23t-47 -31t-34.5 -33h-190v838h864v-250h-635v-336h6q19 13 44.5 26t58 23t71.5 16.5t86 6.5q94 0 175.5 -26.5t142 -82t95 -140.5t34.5 -202z" />
    <glyph glyph-name="six" unicode="6" 
d="M635 -16q-123 0 -226.5 43t-178 130.5t-116.5 219.5t-42 309q0 184 47 326t137 239.5t220 148t296 50.5q54 0 97.5 -4.5t80 -13t68.5 -21t63 -27.5v-231h-116q-29 25 -80 46.5t-127 21.5q-92 0 -156 -28.5t-106.5 -82.5t-66 -131.5t-32.5 -175.5q60 54 142.5 80t179.5 26
q101 0 184.5 -29.5t143 -86t92 -139t32.5 -187.5q0 -106 -37.5 -195t-107.5 -153t-169 -99.5t-222 -35.5zM641 694q-37 0 -72 -6.5t-67 -17.5t-60.5 -25.5t-50.5 -30.5q3 -112 19.5 -192t47 -131t74.5 -74.5t103 -23.5q63 0 105.5 19.5t68 54.5t36.5 83.5t11 106.5
q0 114 -54.5 175.5t-160.5 61.5z" />
    <glyph glyph-name="seven" unicode="7" 
d="M293 125l563 1051v8h-733v250h969v-273l-494 -1161h-305v125z" />
    <glyph glyph-name="eight" unicode="8" 
d="M614 -16q-135 0 -236.5 28.5t-169 83t-101 133t-33.5 177.5q0 137 69.5 223.5t200.5 130.5v8q-105 37 -162 110t-57 189q0 90 35 161t99 120.5t154 75.5t201 26t201 -26t154.5 -75.5t99.5 -120.5t35 -161q0 -116 -56.5 -189t-162.5 -110v-8q131 -44 199.5 -130.5
t68.5 -223.5q0 -99 -33.5 -177.5t-100.5 -133t-168.5 -83t-236.5 -28.5zM614 193q61 0 105 17.5t72.5 48t41.5 72.5t13 91t-13 91.5t-41.5 74t-72.5 49.5t-105 18q-62 0 -106 -18t-72.5 -49.5t-41.5 -74t-13 -91.5t13 -91t41.5 -72.5t72.5 -48t106 -17.5zM614 864
q91 0 141 47.5t50 137.5q0 89 -50 137.5t-141 48.5q-92 0 -141 -48.5t-49 -137.5q0 -90 49 -137.5t141 -47.5z" />
    <glyph glyph-name="nine" unicode="9" 
d="M444 -16q-51 0 -94.5 4t-82 11.5t-72.5 18t-66 23.5v235h117q11 -11 29.5 -23t45 -22t61 -16t77.5 -6q101 0 169 27.5t110 80t63.5 128t29.5 171.5q-65 -48 -147.5 -70t-169.5 -22q-104 0 -188.5 28.5t-145.5 83.5t-94 136t-33 186q0 106 38 196t108.5 156t170 103
t222.5 37t226.5 -43t179 -130.5t117.5 -219.5t42 -309q0 -184 -46.5 -326t-136.5 -239.5t-223 -148t-307 -50.5zM586 739q37 0 72.5 6t68 16.5t60.5 25t51 30.5q-3 114 -20 194.5t-48 131.5t-75.5 74.5t-102.5 23.5q-63 0 -105.5 -21t-69 -57.5t-37.5 -86.5t-11 -107
q0 -115 55 -172.5t162 -57.5z" />
    <glyph glyph-name="colon" unicode=":" horiz-adv-x="614" 
d="M307 582q-35 0 -66 12.5t-53.5 34.5t-35.5 51.5t-13 64.5t13 65t35.5 52.5t53.5 35.5t66 13q34 0 65 -13t53.5 -35.5t36 -52.5t13.5 -65t-13.5 -64.5t-36 -51.5t-53.5 -34.5t-65 -12.5zM307 -12q-35 0 -66 12.5t-53.5 34.5t-35.5 52t-13 65q0 34 13 64.5t35.5 52.5
t53.5 35t66 13q34 0 65 -13t53.5 -35t36 -52.5t13.5 -64.5q0 -35 -13.5 -65t-36 -52t-53.5 -34.5t-65 -12.5z" />
    <glyph glyph-name="semicolon" unicode=";" horiz-adv-x="614" 
d="M133 -94q65 9 97 31.5t32 50.5q0 15 -5.5 23.5t-14.5 14.5t-20.5 11.5t-24.5 13.5q-29 20 -45.5 48.5t-16.5 74.5q0 31 12.5 57t34 45t51 30t64.5 11t67.5 -12t57 -36t39 -61t14.5 -87q0 -158 -83.5 -244t-258.5 -102v131zM307 582q-35 0 -66 12.5t-53.5 34.5t-35.5 51.5
t-13 64.5t13 65t35.5 52.5t53.5 35.5t66 13q34 0 65 -13t53.5 -35.5t36 -52.5t13.5 -65t-13.5 -64.5t-36 -51.5t-53.5 -34.5t-65 -12.5z" />
    <glyph glyph-name="less" unicode="&#x3c;" 
d="M180 774l791 393h69v-221l-557 -264v-6l557 -268v-226h-69l-791 393v199z" />
    <glyph glyph-name="equal" unicode="=" 
d="M158 741v236h915v-236h-915zM158 311v236h915v-236h-915z" />
    <glyph glyph-name="greater" unicode="&#x3e;" 
d="M1049 575l-791 -393h-70v221l557 265v6l-557 268v225h70l791 -393v-199z" />
    <glyph glyph-name="question" unicode="?" horiz-adv-x="920" 
d="M248 422q-9 56 -8.5 102.5t15 90t45 87t81.5 93.5q34 33 63.5 65.5t52 67t35.5 71.5t13 78q0 69 -44 104.5t-110 35.5q-83 0 -140 -27.5t-97 -69.5h-115v221q71 48 161.5 78.5t209.5 30.5q105 0 188.5 -23.5t141.5 -70t89 -116t31 -161.5q0 -58 -14 -106.5t-40.5 -91
t-65.5 -82.5t-89 -80q-46 -39 -83 -70t-62 -64t-37 -71.5t-8 -91.5h-213zM365 -12q-36 0 -66.5 12.5t-53 34.5t-35.5 52t-13 65q0 34 13 64.5t35.5 52.5t53 35t66.5 13q34 0 64.5 -13t53.5 -35t36 -52.5t13 -64.5q0 -35 -13 -65t-36 -52t-53.5 -34.5t-64.5 -12.5z" />
    <glyph glyph-name="at" unicode="@" horiz-adv-x="1802" 
d="M913 -274q-107 0 -212.5 19.5t-201 60t-178 102.5t-142.5 147t-94 194t-34 243q0 142 37 261.5t101 217t150.5 171.5t186.5 123.5t207.5 75t214.5 25.5q162 0 307.5 -45t256 -131.5t175 -212.5t64.5 -289q0 -144 -41.5 -248t-110.5 -172t-159 -100.5t-187 -32.5
q-62 0 -108 9t-78.5 26t-52.5 41t-31 53q-21 -25 -48 -48.5t-59.5 -41.5t-72 -28.5t-86.5 -10.5q-59 0 -106.5 18.5t-81 55t-52 91.5t-18.5 128q0 60 14 121.5t40.5 118t66 106.5t90.5 86.5t113 58t135 21.5q40 0 70.5 -6t55.5 -17t44.5 -26t37.5 -33q28 34 61.5 52t86.5 18
h94l-113 -498q-5 -24 -6 -45.5t5.5 -37.5t21.5 -25t41 -9q48 0 89 21.5t70 67.5t45.5 117t16.5 169q0 116 -42.5 208t-119.5 156t-186 98t-242 34q-86 0 -168.5 -18.5t-157 -56t-137.5 -94.5t-108.5 -134t-71.5 -174t-26 -215q0 -156 50 -267t136 -181.5t201.5 -103
t246.5 -32.5q153 0 284.5 34.5t232.5 102.5h71v-174q-47 -33 -111.5 -60t-141 -45.5t-162 -29t-173.5 -10.5zM809 322q43 0 87 20.5t79 58.5l78 334q-17 6 -38 11.5t-61 5.5q-52 0 -94.5 -26.5t-73 -71.5t-47 -103.5t-16.5 -122.5q0 -54 23 -80t63 -26z" />
    <glyph glyph-name="A" unicode="A" horiz-adv-x="1370" 
d="M45 84l475 1350h330l477 -1350v-84h-309l-119 365h-483l-115 -365h-256v84zM483 584h344l-172 528h-4z" />
    <glyph glyph-name="B" unicode="B" horiz-adv-x="1235" 
d="M127 1434h491q253 0 379.5 -91t126.5 -286q0 -65 -18.5 -114.5t-51.5 -86t-80 -60.5t-104 -36v-8q69 -13 125.5 -38.5t97 -65.5t63 -97t22.5 -133q0 -101 -35.5 -178.5t-104.5 -131t-170.5 -81t-232.5 -27.5h-508v1434zM627 225q115 0 169 55.5t54 151.5q0 97 -55.5 152
t-167.5 55h-187v-414h187zM610 854q104 0 151.5 43.5t47.5 136.5q0 87 -47.5 130.5t-151.5 43.5h-170v-354h170z" />
    <glyph glyph-name="C" unicode="C" horiz-adv-x="1260" 
d="M745 -16q-155 0 -281 49.5t-215.5 143t-138.5 229t-49 307.5t52.5 308.5t146 231.5t224 146t286.5 51q74 0 133 -6.5t108.5 -19t92 -30t84.5 -38.5v-240h-115q-23 22 -52 40.5t-65 32.5t-80.5 22t-97.5 8q-94 0 -166.5 -32.5t-122 -95t-75 -154.5t-25.5 -212
q0 -261 93 -386.5t278 -125.5q64 0 114.5 11t91.5 30.5t74.5 45.5t63.5 56h100v-235q-81 -62 -194.5 -99.5t-264.5 -37.5z" />
    <glyph glyph-name="D" unicode="D" horiz-adv-x="1393" 
d="M127 1434h453q180 0 320.5 -42t236.5 -129.5t146 -221.5t50 -318q0 -183 -50.5 -318.5t-147.5 -225.5t-239 -134.5t-325 -44.5h-444v1434zM571 225q111 0 193 27.5t136 87t80 153t26 226.5q0 132 -26 224.5t-79.5 150t-135.5 84t-194 26.5h-125v-979h125z" />
    <glyph glyph-name="E" unicode="E" horiz-adv-x="1161" 
d="M127 1434h944v-232h-629v-364h451v-220h-451v-393h652v-225h-967v1434z" />
    <glyph glyph-name="F" unicode="F" horiz-adv-x="1139" 
d="M127 0v1434h954v-232h-635v-395h490v-219h-490v-588h-319z" />
    <glyph glyph-name="G" unicode="G" horiz-adv-x="1364" 
d="M739 -16q-160 0 -286 48t-213.5 140.5t-134 228.5t-46.5 312t49 313t141.5 231.5t225.5 143.5t301 49q67 0 122 -5.5t103.5 -16t94 -26t94.5 -36.5v-252h-107q-27 21 -55 39.5t-63 32t-79.5 21t-103.5 7.5q-93 0 -165 -27t-121.5 -85.5t-75 -151.5t-25.5 -225
q0 -266 85.5 -394t258.5 -128q69 0 115 7t84 19v312h-197v207h510v-656q-108 -56 -237 -82t-275 -26z" />
    <glyph glyph-name="H" unicode="H" horiz-adv-x="1419" 
d="M127 0v1434h319v-590h527v590h319v-1434h-319v621h-527v-621h-319z" />
    <glyph glyph-name="I" unicode="I" horiz-adv-x="588" 
d="M133 0v1434h322v-1434h-322z" />
    <glyph glyph-name="J" unicode="J" horiz-adv-x="952" 
d="M360 -16q-55 0 -101 5.5t-85 15t-72 23t-63 29.5v234h104q15 -15 33.5 -29t43 -25t55.5 -17.5t71 -6.5q81 0 123.5 42.5t42.5 127.5v1051h322v-1057q0 -189 -118 -291t-356 -102z" />
    <glyph glyph-name="K" unicode="K" horiz-adv-x="1368" 
d="M127 1434h319v-629l547 629h262v-86l-436 -486l484 -776v-86h-308l-391 631l-158 -176v-455h-319v1434z" />
    <glyph glyph-name="L" unicode="L" horiz-adv-x="1100" 
d="M127 0v1434h319v-1209h592v-225h-911z" />
    <glyph glyph-name="M" unicode="M" horiz-adv-x="1751" 
d="M127 1434h430l320 -955h6l317 955h424v-1434h-315v1069h-6l-363 -1069h-192l-357 1069h-6v-1069h-258v1434z" />
    <glyph glyph-name="N" unicode="N" horiz-adv-x="1419" 
d="M127 1434h362l529 -920h6v920h268v-1434h-291l-602 1047h-6v-1047h-266v1434z" />
    <glyph glyph-name="O" unicode="O" horiz-adv-x="1495" 
d="M748 -16q-138 0 -262.5 48t-219.5 141t-151 230t-56 314t56 314t151 230t219.5 141t262.5 48q137 0 262 -48t219.5 -141t150.5 -230t56 -314t-56 -314t-150.5 -230t-219.5 -141t-262 -48zM748 205q78 0 144 29.5t114 91.5t75 157.5t27 227.5t-27 229t-75 160t-114 94
t-144 31q-79 0 -145.5 -31t-114.5 -94t-74.5 -160t-26.5 -229t26.5 -227.5t74.5 -157.5t114.5 -91.5t145.5 -29.5z" />
    <glyph glyph-name="P" unicode="P" horiz-adv-x="1221" 
d="M127 1434h475q136 0 242 -27.5t178.5 -83.5t110.5 -142.5t38 -203.5q0 -116 -38.5 -202t-112 -143t-181 -85.5t-245.5 -28.5h-148v-518h-319v1434zM446 733h148q73 0 122 16t79 47t42.5 75.5t12.5 101.5t-11.5 100.5t-40.5 72.5t-78.5 43.5t-125.5 14.5h-148v-471z" />
    <glyph glyph-name="Q" unicode="Q" horiz-adv-x="1495" 
d="M709 -55q-148 43 -268 106t-205 155t-131 217.5t-46 293.5q0 177 56 314t151 230t219.5 141t262.5 48q92 0 178.5 -21.5t163 -63.5t140.5 -104t109.5 -143.5t71 -182t25.5 -218.5q0 -120 -27.5 -221.5t-79.5 -183t-127 -141t-170 -95.5v-4l459 -78v-242h-123zM748 203
q78 0 144 30t114 92.5t75 158t27 227.5t-27 229t-75 160t-114 94t-144 31q-79 0 -145.5 -31t-114.5 -94t-74.5 -160t-26.5 -229t26.5 -227.5t74.5 -158t114.5 -92.5t145.5 -30z" />
    <glyph glyph-name="R" unicode="R" horiz-adv-x="1294" 
d="M633 561h-187v-561h-319v1434h481q132 0 235 -27t173 -79.5t106.5 -131.5t36.5 -182q0 -144 -60 -240.5t-169 -150.5l301 -539v-84h-293zM446 780h154q126 0 182 54.5t56 160.5q0 105 -56 158t-182 53h-154v-426z" />
    <glyph glyph-name="S" unicode="S" horiz-adv-x="1092" 
d="M502 -16q-77 0 -140.5 8t-118.5 23t-103 36t-93 47v244h105q24 -26 56.5 -49.5t74.5 -41.5t94 -29t115 -11q131 0 194.5 46t63.5 130q0 58 -25 92t-67.5 56t-98.5 36.5t-117 32.5q-99 29 -171.5 66t-120 87t-70.5 117.5t-23 157.5q0 105 37 183t104 130.5t159 78.5
t202 26q127 0 229 -26t170 -68v-232h-100q-57 42 -126 69.5t-161 27.5q-117 0 -178 -39t-61 -127q0 -43 17.5 -72.5t50.5 -51t82 -37.5t112 -32q117 -30 201 -65.5t138 -86.5t79.5 -121t25.5 -169q0 -209 -136 -322.5t-400 -113.5z" />
    <glyph glyph-name="T" unicode="T" horiz-adv-x="1202" 
d="M441 0v1208h-392v226h1104v-226h-392v-1208h-320z" />
    <glyph glyph-name="U" unicode="U" horiz-adv-x="1389" 
d="M731 219q65 0 115.5 14.5t85 52t52 102t17.5 165.5v881h267v-873q0 -138 -30 -245.5t-96 -181t-171.5 -112t-257.5 -38.5q-146 0 -256.5 38.5t-185 112t-112.5 181t-38 245.5v873h319v-881q0 -101 19.5 -165.5t57 -102t91.5 -52t123 -14.5z" />
    <glyph glyph-name="V" unicode="V" horiz-adv-x="1354" 
d="M43 1350v84h305l346 -1057h4l349 1057h264v-84l-471 -1350h-328z" />
    <glyph glyph-name="W" unicode="W" horiz-adv-x="1878" 
d="M47 1350v84h303l221 -1039h4l246 1039h271l254 -1039h4l213 1039h268v-84l-322 -1350h-354l-215 938h-4l-213 -938h-356z" />
    <glyph glyph-name="X" unicode="X" horiz-adv-x="1341" 
d="M63 90l396 658l-389 595v91h305l317 -504l283 504h256v-91l-365 -618l412 -635v-90h-303l-344 545l-309 -545h-259v90z" />
    <glyph glyph-name="Y" unicode="Y" horiz-adv-x="1253" 
d="M481 0v555l-444 788v91h299l321 -603h5l309 603h246v-91l-416 -780v-563h-320z" />
    <glyph glyph-name="Z" unicode="Z" horiz-adv-x="1133" 
d="M49 242l686 956v8h-633v228h971v-248l-686 -957v-8h686v-221h-1024v242z" />
    <glyph glyph-name="bracketleft" unicode="[" horiz-adv-x="692" 
d="M143 1518h486v-197h-207v-1225h207v-196h-486v1618z" />
    <glyph glyph-name="backslash" unicode="\" horiz-adv-x="721" 
d="M12 1518h226l477 -1557v-61h-226l-477 1556v62z" />
    <glyph glyph-name="bracketright" unicode="]" horiz-adv-x="692" 
d="M549 -100h-486v196h207v1225h-207v197h486v-1618z" />
    <glyph glyph-name="asciicircum" unicode="^" horiz-adv-x="881" 
d="M39 995l293 439h215l295 -439v-69h-217l-183 264h-6l-180 -264h-217v69z" />
    <glyph glyph-name="underscore" unicode="_" horiz-adv-x="764" 
d="M-4 -332v191h772v-191h-772z" />
    <glyph glyph-name="grave" unicode="`" horiz-adv-x="819" 
d="M332 1151l-203 197v86h303l70 -220v-63h-170z" />
    <glyph glyph-name="a" unicode="a" horiz-adv-x="1102" 
d="M870 0q-35 0 -61.5 4.5t-45 16.5t-31 32.5t-19.5 52.5q-59 -65 -136 -91.5t-176 -26.5q-75 0 -139 20.5t-110.5 61t-72.5 101t-26 140.5q0 85 32 148t89 105t135.5 62.5t171.5 20.5q66 0 116 -6t99 -18v102q0 73 -44.5 111t-151.5 38q-85 0 -155 -23t-124 -60h-84v210
q39 18 82 34.5t93.5 29t108.5 20t126 7.5q111 0 195 -19.5t140.5 -61t84.5 -107.5t28 -159v-745h-125zM696 463q-71 12 -153 12q-91 0 -145 -34.5t-54 -112.5q0 -79 46.5 -115.5t121.5 -36.5q56 0 101.5 24t82.5 58v205z" />
    <glyph glyph-name="b" unicode="b" horiz-adv-x="1210" 
d="M412 973q60 50 140.5 84.5t184.5 34.5q78 0 152 -27.5t132.5 -91t94 -166.5t35.5 -254q0 -156 -39 -264t-103.5 -175.5t-147 -97.5t-169.5 -30q-111 0 -189.5 30.5t-135.5 81.5q-25 -43 -57 -70.5t-64 -27.5h-133v1434h182q37 0 59.5 -6t35.5 -24t17.5 -51t4.5 -87v-293z
M610 862q-45 0 -98.5 -15.5t-99.5 -37.5v-553q38 -31 83.5 -47t110.5 -16q46 0 89.5 12.5t77.5 49t54.5 101.5t20.5 170t-19 170.5t-51 102t-75.5 50t-92.5 13.5z" />
    <glyph glyph-name="c" unicode="c" horiz-adv-x="1022" 
d="M610 -14q-131 0 -234.5 37.5t-175 108t-109.5 172.5t-38 231q0 130 43.5 233t120 175t181.5 110.5t227 38.5q63 0 113 -6.5t90 -17t71 -24t55 -26.5v-223h-114q-32 31 -87.5 54t-127.5 23q-59 0 -108 -21.5t-85 -64t-56 -106t-20 -148.5q0 -87 19 -149t53.5 -102
t82.5 -59t105 -19q48 0 85 7.5t66 19.5t50.5 27.5t38.5 31.5h102v-205q-24 -16 -58.5 -33.5t-78 -31.5t-96.5 -23.5t-115 -9.5z" />
    <glyph glyph-name="d" unicode="d" horiz-adv-x="1210" 
d="M891 0q-18 0 -32 4.5t-24.5 18t-18 37t-11.5 61.5q-26 -29 -59 -54t-72 -43.5t-85.5 -29t-99.5 -10.5q-90 0 -168.5 33.5t-136.5 100t-91.5 166.5t-33.5 234q0 158 39.5 267.5t104 177.5t147 98.5t168.5 30.5q51 0 92 -6.5t75 -18.5t61.5 -29t52.5 -39v435h182
q37 0 60 -6.5t36 -24.5t17 -51t4 -86v-1266h-207zM575 193q33 0 61.5 5.5t55 17.5t52.5 29.5t55 41.5v522q-35 26 -81 39.5t-108 13.5q-46 0 -90.5 -13.5t-79.5 -50.5t-56.5 -101t-21.5 -165q0 -92 13 -156.5t39.5 -105t66.5 -59t94 -18.5z" />
    <glyph glyph-name="e" unicode="e" horiz-adv-x="1112" 
d="M360 471q6 -81 27.5 -133.5t57.5 -84t86 -44t112 -12.5q91 0 161.5 26t123.5 64h92v-197q-32 -18 -72 -36.5t-91 -33.5t-114.5 -24.5t-144.5 -9.5q-132 0 -233.5 38t-171 108.5t-105 172t-35.5 227.5q0 130 40 234t110.5 176.5t166.5 111t208 38.5q236 0 359.5 -131.5
t123.5 -397.5q0 -28 -2 -56t-2 -36h-697zM578 903q-39 0 -74.5 -11t-63.5 -39.5t-47.5 -77.5t-27.5 -124h401q-2 72 -15.5 120t-37.5 77.5t-58 42t-77 12.5z" />
    <glyph glyph-name="f" unicode="f" horiz-adv-x="707" 
d="M31 1075h127v82q0 77 23.5 133t67.5 92.5t107 54t142 17.5q65 0 106 -8t72 -21v-178h-82q-32 0 -57 -4t-43 -15t-27.5 -30.5t-9.5 -50.5v-72h205v-201h-205v-874h-299v874h-127v201z" />
    <glyph glyph-name="g" unicode="g" horiz-adv-x="1210" 
d="M1098 57q0 -99 -37 -174.5t-107.5 -127t-173.5 -77.5t-235 -26q-147 0 -253.5 25t-178.5 63v215h90q55 -38 130.5 -64t174.5 -26q145 0 218 50t73 161v67q-54 -46 -130 -75t-167 -29q-89 0 -169.5 28.5t-141.5 89.5t-96.5 155t-35.5 225q0 150 39.5 255t105.5 172
t151 97.5t175 30.5q102 0 173 -29t124 -78q17 40 46 65t77 25h148v-1018zM588 248q56 0 111 22t100 54v477q-41 31 -84.5 46t-108.5 15q-46 0 -90 -13.5t-78 -47t-55 -91.5t-21 -147q0 -90 13.5 -150t41.5 -97t70.5 -52.5t100.5 -15.5z" />
    <glyph glyph-name="h" unicode="h" horiz-adv-x="1194" 
d="M412 963q37 27 82.5 51t95.5 41t103 27t106 10q58 0 110.5 -13t92 -47t62.5 -92.5t23 -148.5v-791h-299v715q0 40 -7.5 66t-24 42t-41.5 22.5t-60 6.5q-69 0 -130.5 -15.5t-112.5 -33.5v-803h-299v1434h182q37 0 59.5 -6t35.5 -24t17.5 -51t4.5 -87v-303z" />
    <glyph glyph-name="i" unicode="i" horiz-adv-x="530" 
d="M115 0v1075h186q37 0 59 -7.5t34 -29t16 -60t4 -99.5v-879h-299zM266 1159q-34 0 -63.5 12.5t-52 33.5t-35.5 50t-13 62t13 62t35.5 51t52 34.5t63.5 12.5t63.5 -12.5t51.5 -34.5t34.5 -51t12.5 -62t-12.5 -62t-34.5 -50t-51.5 -33.5t-63.5 -12.5z" />
    <glyph glyph-name="j" unicode="j" horiz-adv-x="530" 
d="M-80 -150h62q74 0 103.5 34.5t29.5 111.5v1079h186q36 0 58 -7.5t34.5 -29t16.5 -60t4 -99.5v-902q0 -169 -84 -245t-244 -76q-53 0 -92 5.5t-74 16.5v172zM266 1159q-34 0 -63.5 12.5t-52 33.5t-35.5 50t-13 62t13 62t35.5 51t52 34.5t63.5 12.5t63.5 -12.5t51.5 -34.5
t34.5 -51t12.5 -62t-12.5 -62t-34.5 -50t-51.5 -33.5t-63.5 -12.5z" />
    <glyph glyph-name="k" unicode="k" horiz-adv-x="1128" 
d="M412 643l383 432h245v-78l-317 -344l360 -571v-82h-276l-285 453l-110 -115v-338h-299v1434h182q37 0 59.5 -6t35.5 -24t17.5 -51t4.5 -87v-623z" />
    <glyph glyph-name="l" unicode="l" horiz-adv-x="532" 
d="M117 0v1434h182q37 0 60 -6t36 -24t17 -51t4 -87v-1266h-299z" />
    <glyph glyph-name="m" unicode="m" horiz-adv-x="1825" 
d="M315 1075q19 0 34.5 -5t26.5 -17.5t18.5 -34t11.5 -55.5q36 27 79.5 50.5t92 41t100.5 27.5t106 10q42 0 80.5 -7t72 -23t60 -42.5t43.5 -65.5q41 31 88.5 56.5t98.5 43.5t104.5 28t106.5 10q57 0 107.5 -14.5t89 -49.5t61 -92.5t22.5 -144.5v-791h-299v715
q0 76 -29 106.5t-96 30.5q-65 0 -123 -16.5t-106 -34.5v-801h-299v715q0 76 -29 106.5t-96 30.5q-65 0 -122.5 -16t-106.5 -33v-803h-299v1075h202v0z" />
    <glyph glyph-name="n" unicode="n" horiz-adv-x="1194" 
d="M315 1075q19 0 34.5 -5t26.5 -17.5t19 -35t13 -56.5q37 27 83 51t96 42t104 28t108 10q58 0 110.5 -13t92 -47t62.5 -92.5t23 -148.5v-791h-299v715q0 40 -7.5 66t-24 42t-41.5 22.5t-60 6.5q-69 0 -130.5 -15.5t-112.5 -33.5v-803h-299v1075h202v0z" />
    <glyph glyph-name="o" unicode="o" horiz-adv-x="1204" 
d="M602 -14q-114 0 -214 37t-174.5 107t-117.5 171.5t-43 230.5q0 130 43 234t117.5 176.5t174.5 111t214 38.5t214 -38.5t174.5 -111t117.5 -176.5t43 -234q0 -129 -43 -230.5t-117.5 -171.5t-174.5 -107t-214 -37zM602 199q55 0 100 19t77.5 59.5t50.5 103t18 149.5
q0 88 -18 153.5t-50.5 109t-77.5 65t-100 21.5q-54 0 -99.5 -21.5t-78 -65t-50.5 -109t-18 -153.5q0 -87 18 -149.5t50.5 -103t78 -59.5t99.5 -19z" />
    <glyph glyph-name="p" unicode="p" horiz-adv-x="1210" 
d="M680 12q-88 0 -152.5 20.5t-115.5 57.5v-422h-299v1407h202q19 0 33.5 -4.5t26 -16t19 -32t12.5 -51.5q30 25 64.5 47t75 38.5t88 26t103.5 9.5q78 0 152 -28.5t132.5 -91.5t94 -163t35.5 -244q0 -152 -40 -257.5t-105.5 -171t-150.5 -95t-175 -29.5zM614 862
q-22 0 -48 -4t-52.5 -11.5t-52.5 -17t-49 -20.5v-530q75 -60 192 -60q49 0 93.5 13t78 48.5t53 97.5t19.5 161q0 97 -18.5 160t-50.5 99t-74.5 50t-90.5 14z" />
    <glyph glyph-name="q" unicode="q" horiz-adv-x="1210" 
d="M799 117q-53 -47 -128.5 -76t-168.5 -29q-90 0 -170.5 30t-141 93t-96 159.5t-35.5 229.5q0 156 39.5 264t105.5 175.5t151 98t175 30.5q103 0 174.5 -30t124.5 -81q19 42 48.5 68t72.5 26h148v-1407h-299v449zM588 221q56 0 111 22t100 54v504q-41 31 -84.5 46
t-108.5 15q-46 0 -90 -14t-78 -49.5t-55 -95.5t-21 -152q0 -93 12.5 -156t39.5 -102t70 -55.5t104 -16.5z" />
    <glyph glyph-name="r" unicode="r" horiz-adv-x="809" 
d="M721 840q-112 0 -189 -20.5t-120 -43.5v-776h-299v1075h202q19 0 34.5 -5t27 -19.5t19.5 -39.5t12 -65q25 27 56 52t68.5 44.5t81 31t93.5 11.5q17 0 33.5 -2.5t31.5 -7.5v-235h-51v0z" />
    <glyph glyph-name="s" unicode="s" horiz-adv-x="932" 
d="M434 -12q-66 0 -120.5 7t-100.5 19t-83.5 28t-68.5 34v221h95q18 -17 44 -33t59.5 -29t73.5 -20.5t87 -7.5q184 0 184 100q0 25 -8.5 43.5t-30 32t-58 23t-93.5 16.5q-89 11 -156 34t-113 62t-69 96t-23 136q0 81 29.5 144t84.5 106t134 65t178 22q58 0 106.5 -5.5
t89 -15t75.5 -23t67 -29.5v-217h-90q-37 28 -99.5 49.5t-146.5 21.5q-87 0 -124.5 -25t-37.5 -71q0 -41 45.5 -65t155.5 -37q96 -12 164.5 -35.5t113 -62.5t65 -97t20.5 -139q0 -79 -26.5 -143.5t-81.5 -110t-139.5 -70t-201.5 -24.5z" />
    <glyph glyph-name="t" unicode="t" horiz-adv-x="721" 
d="M31 1075h127v287h299v-287h217v-201h-217v-550q0 -39 8 -64t25 -40t43 -21t63 -6h82v-181q-34 -11 -80 -19.5t-109 -8.5q-77 0 -138.5 16.5t-104.5 52.5t-65.5 94t-22.5 142v585h-127v201z" />
    <glyph glyph-name="u" unicode="u" horiz-adv-x="1219" 
d="M569 209q57 0 116.5 16.5t109.5 36.5v813h299v-1075h-203q-18 0 -33 4t-26 14.5t-19 30t-12 51.5q-76 -52 -173 -83t-196 -31q-68 0 -125 14t-99 48t-65.5 89.5t-23.5 138.5v799h299v-723q0 -44 10.5 -71.5t30 -43.5t47.5 -22t63 -6z" />
    <glyph glyph-name="v" unicode="v" horiz-adv-x="1139" 
d="M39 997v78h283l272 -741h4l248 741h254v-78l-375 -997h-295z" />
    <glyph glyph-name="w" unicode="w" horiz-adv-x="1626" 
d="M43 997v78h285l180 -678h4l211 678h229l197 -678h4l193 678h237v-78l-305 -997h-264l-201 668h-4l-209 -668h-260z" />
    <glyph glyph-name="x" unicode="x" horiz-adv-x="1114" 
d="M49 78l316 467l-297 452v78h284l226 -364l206 364h248v-78l-276 -436l309 -483v-78h-283l-241 399l-240 -399h-252v78z" />
    <glyph glyph-name="y" unicode="y" horiz-adv-x="1124" 
d="M297 -252l145 305l-403 944v78h280l265 -663h4l243 663h256v-78l-534 -1329h-256v80z" />
    <glyph glyph-name="z" unicode="z" horiz-adv-x="1010" 
d="M59 207l549 657h-516v211h848v-209l-551 -655h537v-211h-867v207z" />
    <glyph glyph-name="braceleft" unicode="{" horiz-adv-x="752" 
d="M203 508q0 21 -6.5 41.5t-20.5 36.5t-35.5 25.5t-52.5 9.5h-47v196h47q31 0 52.5 9.5t35.5 25t20.5 36t6.5 42.5v325q0 126 72 194.5t223 68.5h190v-197h-147q-12 0 -22.5 -6t-19 -15.5t-13.5 -21t-5 -21.5v-315q0 -42 -9 -76t-30.5 -61t-56.5 -47.5t-86 -34.5v-6
q51 -14 86 -34.5t56.5 -47.5t30.5 -61.5t9 -75.5v-338q0 -10 5 -21.5t13.5 -21t19 -15.5t22.5 -6h147v-196h-190q-151 0 -223 68t-72 194v346z" />
    <glyph glyph-name="bar" unicode="|" horiz-adv-x="358" 
d="M297 -100h-236v1618h236v-1618z" />
    <glyph glyph-name="braceright" unicode="}" horiz-adv-x="752" 
d="M549 162q0 -126 -72 -194t-223 -68h-191v196h148q12 0 22.5 6t18.5 15.5t13 21t5 21.5v338q0 41 9 75.5t30.5 61.5t56.5 47.5t87 34.5v6q-52 14 -87 34.5t-56.5 47.5t-30.5 61t-9 76v315q0 10 -5 21.5t-13 21t-18.5 15.5t-22.5 6h-148v197h191q151 0 223 -68.5t72 -194.5
v-325q0 -22 6.5 -42.5t20.5 -36t35.5 -25t52.5 -9.5h47v-196h-47q-31 0 -52.5 -9.5t-35.5 -25.5t-20.5 -36.5t-6.5 -41.5v-346z" />
    <glyph glyph-name="asciitilde" unicode="~" horiz-adv-x="807" 
d="M518 694q31 0 48 15.5t28 46.5h174v-92q-10 -46 -30 -86t-49.5 -69t-68.5 -46t-88 -17q-36 0 -71.5 8.5t-67.5 19t-59 19.5t-45 9q-31 0 -48 -15.5t-28 -46.5h-174v92q10 46 30 86t49.5 69t68.5 46t87 17q41 0 77.5 -9t67 -19.5t56 -19t43.5 -8.5z" />
    <glyph glyph-name="uni00A0" unicode="&#xa0;" horiz-adv-x="614" 
 />
    <glyph glyph-name="exclamdown" unicode="&#xa1;" horiz-adv-x="582" 
d="M451 29v-176h-320v176l62 835h196zM291 1298q35 0 66 -12.5t53.5 -34.5t35.5 -52t13 -64q0 -35 -13 -65t-35.5 -52.5t-53.5 -35.5t-66 -13t-65.5 13t-53 35.5t-36 52.5t-13.5 65q0 34 13.5 64t36 52t53 34.5t65.5 12.5z" />
    <glyph glyph-name="cent" unicode="&#xa2;" 
d="M1065 84q-38 -26 -103 -53t-151 -37v-205h-182v201q-114 10 -205.5 51.5t-155 111.5t-97.5 166.5t-34 215.5q0 117 37.5 212.5t103.5 166t156 114t195 57.5v121h182v-119q88 -9 149 -29t101 -40v-223h-115q-21 20 -56.5 39t-78.5 30v-655q53 12 90 34.5t62 45.5h102v-205
zM438 532q0 -143 49 -222.5t142 -102.5v655q-91 -26 -141 -109t-50 -221z" />
    <glyph glyph-name="sterling" unicode="&#xa3;" 
d="M721 1210q-40 0 -78.5 -10t-68.5 -32t-48 -56.5t-18 -83.5q0 -51 5.5 -102.5t14.5 -104.5h344v-209h-311q5 -35 7.5 -70.5t2.5 -70.5q0 -69 -22 -126t-53 -95h612v-250h-983v211q33 12 62 32t51 50.5t34.5 73t12.5 98.5q0 37 -5.5 73.5t-13.5 73.5h-133v209h84
q-11 48 -17.5 96t-6.5 101q0 107 41 188t112 135t165.5 81.5t201.5 27.5q64 0 116 -6.5t95.5 -18.5t81.5 -29.5t73 -39.5v-236h-100q-53 41 -113 65.5t-145 24.5z" />
    <glyph glyph-name="yen" unicode="&#xa5;" 
d="M127 790h248l-299 553v91h289l278 -564h4l264 564h242v-91l-281 -553h258v-178h-344v-112h344v-178h-344v-322h-315v322h-344v178h344v112h-344v178z" />
    <glyph glyph-name="brokenbar" unicode="&#xa6;" horiz-adv-x="360" 
d="M61 631h236v-731h-236v731zM61 1518h236v-713h-236v713z" />
    <glyph glyph-name="section" unicode="&#xa7;" horiz-adv-x="1073" 
d="M952 80q0 -75 -28.5 -139.5t-86 -112t-146 -74t-208.5 -26.5q-68 0 -125.5 7t-105.5 19t-87.5 27.5t-72.5 32.5v221h94q18 -18 50 -34.5t71.5 -29t84 -20.5t87.5 -8q90 0 137.5 27.5t47.5 82.5q0 28 -12.5 49t-42.5 39t-79 34.5t-122 37.5q-95 27 -164 59t-113.5 74
t-66 96t-21.5 125q0 55 14.5 99t40 77.5t61 57.5t77.5 41q-31 23 -52.5 49.5t-35 58.5t-19.5 70t-6 84q0 78 29.5 141.5t85 109t136 70.5t181.5 25q69 0 123 -6.5t97 -17.5t76.5 -25.5t61.5 -30.5v-213h-90q-18 13 -43.5 26.5t-58 24t-72 17t-84.5 6.5q-83 0 -132.5 -27
t-49.5 -84q0 -24 11 -44.5t37 -38.5t70.5 -35t112.5 -33q104 -26 180.5 -57t127 -74t75.5 -101t25 -139q0 -38 -8.5 -76t-29.5 -73t-57.5 -66t-92.5 -55q58 -42 88 -101t30 -147zM305 616q0 -26 9.5 -48t31.5 -41t59 -36t93 -32q37 -11 71 -20.5t66 -20.5q59 21 89 57.5
t30 81.5q0 61 -50 97t-159 65q-31 8 -58 15.5t-53 15.5q-69 -16 -99 -51.5t-30 -82.5z" />
    <glyph glyph-name="dieresis" unicode="&#xa8;" horiz-adv-x="819" 
d="M213 1159q-32 0 -60 11.5t-49 32t-33 47.5t-12 59q0 31 12 58t33 47t49 32t60 12t60 -12t49 -32t33 -47t12 -58q0 -32 -12 -59t-33 -47.5t-49 -32t-60 -11.5zM606 1159q-32 0 -60 11.5t-48.5 32t-32.5 47.5t-12 59q0 31 12 58t32.5 47t48.5 32t60 12t60 -12t49 -32
t33 -47t12 -58q0 -32 -12 -59t-33 -47.5t-49 -32t-60 -11.5z" />
    <glyph glyph-name="copyright" unicode="&#xa9;" horiz-adv-x="1597" 
d="M799 -16q-147 0 -280 48t-234.5 141t-161.5 230t-60 314t60 314t161.5 230t234.5 141t280 48t280 -48t234 -141t161 -230t60 -314t-60 -314t-161 -230t-234 -141t-280 -48zM799 88q127 0 237.5 41.5t193 122t130 197.5t47.5 268q0 150 -47.5 267.5t-130 197.5t-193 122
t-237.5 42t-238 -42t-193.5 -122t-130 -197.5t-47.5 -267.5q0 -151 47.5 -268t130 -197.5t193.5 -122t238 -41.5zM821 315q-96 0 -171.5 27.5t-128 79.5t-80 127t-27.5 170q0 94 32 169.5t88 128.5t132 81t165 28q47 0 84.5 -5t67 -12.5t53 -17t41.5 -18.5v-172h-92
q-23 22 -59 39.5t-95 17.5q-85 0 -134.5 -61.5t-49.5 -179.5q0 -123 48 -178.5t132 -55.5q35 0 61.5 5.5t47 14t35.5 19t26 21.5h82v-156q-18 -12 -43 -24.5t-57.5 -23t-72 -17.5t-85.5 -7z" />
    <glyph glyph-name="ordfeminine" unicode="&#xaa;" horiz-adv-x="915" 
d="M723 528q-57 0 -87 19.5t-42 70.5q-50 -54 -114.5 -77t-147.5 -23q-62 0 -115 17t-92 51.5t-61.5 85.5t-22.5 119q0 71 26.5 124.5t74 89t113.5 53t144 17.5q54 0 96.5 -4.5t84.5 -15.5v71q0 60 -37 90.5t-125 30.5q-71 0 -127.5 -19t-100.5 -48h-79v194q33 15 70 28.5
t80.5 24t94 17t109.5 6.5q97 0 170 -16.5t122 -52.5t73 -93.5t24 -138.5v-621h-131zM580 913q-28 4 -58 6.5t-61 2.5q-71 0 -113.5 -27t-42.5 -90t37 -89t94 -26q42 0 78.5 18t65.5 44v161z" />
    <glyph glyph-name="guillemotleft" unicode="&#xab;" horiz-adv-x="1055" 
d="M72 473v117l245 393h234v-65l-227 -379v-7l227 -385v-65h-234zM504 473v117l246 393h233v-65l-227 -379v-7l227 -385v-65h-233z" />
    <glyph glyph-name="registered" unicode="&#xae;" horiz-adv-x="791" 
d="M395 717q-74 0 -142 24.5t-120 71.5t-83.5 115t-31.5 155q0 88 31.5 156t83.5 115t120 71.5t142 24.5q73 0 141 -24.5t120.5 -71.5t84 -115t31.5 -156q0 -87 -31.5 -155t-84 -115t-120.5 -71.5t-141 -24.5zM395 791q61 0 114 18.5t92.5 55t62 91t22.5 127.5t-22.5 128
t-62 91.5t-92.5 55t-114 18.5t-114 -18.5t-92.5 -55t-62 -91.5t-22.5 -128t22.5 -127.5t62 -91t92.5 -55t114 -18.5zM563 1157q0 -34 -15.5 -59.5t-43.5 -40.5l67 -117v-37h-110l-66 129h-35v-129h-116v379h164q155 0 155 -125zM360 1108h37q28 0 38.5 13t10.5 38
q0 22 -10.5 34.5t-38.5 12.5h-37v-98z" />
    <glyph glyph-name="macron" unicode="&#xaf;" horiz-adv-x="819" 
d="M676 1196h-533v201h533v-201z" />
    <glyph glyph-name="degree" unicode="&#xb0;" horiz-adv-x="713" 
d="M356 868q-61 0 -115.5 20.5t-96 58.5t-65.5 91.5t-24 118.5t24 118.5t65.5 91.5t96 58.5t115.5 20.5t116 -20.5t96 -58.5t65 -91.5t24 -118.5t-24 -118.5t-65 -91.5t-96 -58.5t-116 -20.5zM356 1005q31 0 57.5 11t46 31.5t30 48t10.5 61.5t-10.5 62.5t-30 48t-46 30.5
t-57.5 11t-56.5 -11t-44 -30.5t-28.5 -48t-10 -62.5q0 -68 38.5 -110t100.5 -42z" />
    <glyph glyph-name="acute" unicode="&#xb4;" horiz-adv-x="819" 
d="M317 1151v63l70 220h303v-86l-203 -197h-170z" />
    <glyph glyph-name="paragraph" unicode="&#xb6;" horiz-adv-x="1212" 
d="M514 621h-6q-101 0 -185 23t-145 72.5t-95 126t-34 183.5q0 117 40 195.5t109.5 126t164.5 67t206 19.5h516v-1620h-213v1411h-145v-1411h-213v807z" />
    <glyph glyph-name="periodcentered" unicode="&#xb7;" horiz-adv-x="459" 
d="M229 440q-35 0 -66 12.5t-53.5 35t-35.5 52t-13 64.5q0 34 13 64.5t35.5 53t53.5 35.5t66 13t65.5 -13t53.5 -35.5t36 -53t13 -64.5q0 -35 -13 -64.5t-36 -52t-53.5 -35t-65.5 -12.5z" />
    <glyph glyph-name="cedilla" unicode="&#xb8;" horiz-adv-x="819" 
d="M461 0v-49q88 -3 127 -43.5t39 -108.5q0 -74 -58 -115.5t-157 -41.5q-51 0 -88.5 8.5t-69.5 23.5v123h59q11 -12 29.5 -20t44.5 -8q57 0 57 38q0 19 -16.5 28t-54.5 9h-54v156h142z" />
    <glyph glyph-name="ordmasculine" unicode="&#xba;" horiz-adv-x="1049" 
d="M524 516q-99 0 -185 31.5t-149.5 91t-100 145.5t-36.5 195t36.5 196.5t100 148.5t149.5 93.5t185 32.5t185 -32.5t149.5 -93.5t100 -148.5t36.5 -196.5t-36.5 -195t-100 -145.5t-149.5 -91t-185 -31.5zM524 707q43 0 78.5 15.5t61 48t39.5 83.5t14 123q0 71 -14 123.5
t-39.5 87t-61 51t-78.5 16.5t-78 -16.5t-60.5 -51t-39.5 -87t-14 -123.5q0 -72 14 -123t39.5 -83.5t60.5 -48t78 -15.5z" />
    <glyph glyph-name="guillemotright" unicode="&#xbb;" horiz-adv-x="1055" 
d="M737 82h-233v65l227 385v7l-227 379v65h233l246 -393v-117zM305 82h-233v65l227 385v7l-227 379v65h233l246 -393v-117z" />
    <glyph glyph-name="onequarter" unicode="&#xbc;" horiz-adv-x="1487" 
d="M199 645v561l-107 -55h-45v168l217 115h174v-789h-239zM117 -70l1009 1563h213l-1009 -1563h-213zM1143 0v162h-355v172l361 454h215v-477h82v-149h-82v-162h-221zM952 311h193v238h-6l-187 -234v-4z" />
    <glyph glyph-name="onehalf" unicode="&#xbd;" horiz-adv-x="1583" 
d="M199 645v561l-107 -55h-45v168l217 115h174v-789h-239zM117 -70l1009 1563h213l-1009 -1563h-213zM1522 0h-576v172l219 203q62 57 92.5 97.5t30.5 78.5q0 34 -25 55t-71 21q-45 0 -84.5 -16.5t-60.5 -35.5h-82v152q43 29 108.5 51.5t153.5 22.5q142 0 219.5 -56.5
t77.5 -175.5q0 -43 -13 -78.5t-37 -69t-59 -67t-80 -71.5l-129 -111h316v-172z" />
    <glyph glyph-name="threequarters" unicode="&#xbe;" horiz-adv-x="1581" 
d="M301 633q-45 0 -81.5 5.5t-65.5 14t-53 20t-44 23.5v146h80q19 -17 56.5 -34t85.5 -17q60 0 94.5 20.5t34.5 67.5q0 45 -32.5 66.5t-90.5 21.5h-74v147h68q58 0 91 23t33 63q0 78 -102 78q-45 0 -82.5 -14t-58.5 -29h-78v141q43 28 106.5 49t145.5 21q62 0 115 -13
t91.5 -40t60.5 -68t22 -98q0 -36 -12 -64.5t-33 -50t-50.5 -36.5t-64.5 -25v-4q81 -14 126.5 -58t45.5 -123q0 -57 -23.5 -100.5t-67 -73t-105 -44.5t-138.5 -15zM223 -70l1010 1563h213l-1010 -1563h-213zM1237 0v162h-354v172l360 454h215v-477h82v-149h-82v-162h-221z
M1047 311h192v238h-6l-186 -234v-4z" />
    <glyph glyph-name="questiondown" unicode="&#xbf;" horiz-adv-x="920" 
d="M672 864q8 -56 7.5 -102.5t-14.5 -89.5t-44.5 -86.5t-81.5 -93.5q-34 -33 -63.5 -66t-52 -67.5t-35.5 -71.5t-13 -78q0 -69 43.5 -104t109.5 -35q83 0 140.5 27.5t97.5 68.5h115v-221q-72 -48 -162 -78.5t-209 -30.5q-105 0 -189 23.5t-142 70t-89 116t-31 161.5
q0 58 14 106.5t40.5 91t65.5 82t89 80.5q46 39 83 70t62.5 64t37.5 71.5t8 91.5h213zM555 1298q35 0 66 -12.5t53.5 -34.5t35.5 -52t13 -64q0 -35 -13 -65t-35.5 -52.5t-53.5 -35.5t-66 -13t-65.5 13t-53 35.5t-36 52.5t-13.5 65q0 34 13.5 64t36 52t53 34.5t65.5 12.5z" />
    <glyph glyph-name="Agrave" unicode="&#xc0;" horiz-adv-x="1370" 
d="M45 84l475 1350h330l477 -1350v-84h-309l-119 365h-483l-115 -365h-256v84zM483 584h344l-172 528h-4zM613 1479l-203 176v86h303l70 -199v-63h-170z" />
    <glyph glyph-name="Aacute" unicode="&#xc1;" horiz-adv-x="1370" 
d="M45 84l475 1350h330l477 -1350v-84h-309l-119 365h-483l-115 -365h-256v84zM483 584h344l-172 528h-4zM577 1479v63l70 199h303v-86l-203 -176h-170z" />
    <glyph glyph-name="Acircumflex" unicode="&#xc2;" horiz-adv-x="1370" 
d="M70 84l475 1350h330l477 -1350v-84h-309l-119 365h-483l-115 -365h-256v84zM508 584h344l-172 528h-4zM418 1554l186 195h205l178 -195v-75h-164l-125 84l-124 -84h-156v75z" />
    <glyph glyph-name="Atilde" unicode="&#xc3;" horiz-adv-x="1370" 
d="M45 84l475 1350h330l477 -1350v-84h-309l-119 365h-483l-115 -365h-256v84zM483 584h344l-172 528h-4zM336 1557q17 96 69 144t133 48q36 0 68 -8.5t59.5 -18t51 -18t42.5 -8.5q28 0 44 14.5t24 40.5h164v-77q-17 -96 -69 -144.5t-134 -48.5q-36 0 -67.5 9t-59 19.5
t-50.5 19.5t-42 9q-56 0 -70 -59h-163v78z" />
    <glyph glyph-name="Adieresis" unicode="&#xc4;" horiz-adv-x="1370" 
d="M45 84l475 1350h330l477 -1350v-84h-309l-119 365h-483l-115 -365h-256v84zM483 584h344l-172 528h-4zM482 1481q-32 0 -60 11.5t-49 32t-33 47.5t-12 59q0 31 12 58t33 47t49 32t60 12t60 -12t49 -32t33 -47t12 -58q0 -32 -12 -59t-33 -47.5t-49 -32t-60 -11.5z
M875 1481q-32 0 -60 11.5t-48.5 32t-32.5 47.5t-12 59q0 31 12 58t32.5 47t48.5 32t60 12t60 -12t49 -32t33 -47t12 -58q0 -32 -12 -59t-33 -47.5t-49 -32t-60 -11.5z" />
    <glyph glyph-name="Aring" unicode="&#xc5;" horiz-adv-x="1370" 
d="M45 84l475 1350h330l477 -1350v-84h-309l-119 365h-483l-115 -365h-256v84zM483 584h344l-172 528h-4zM677 1483q-44 0 -83 14t-68.5 40.5t-46.5 64.5t-17 86t17 86t46.5 65t68.5 41.5t83 14.5q43 0 82.5 -14.5t68.5 -41.5t46.5 -65t17.5 -86t-17.5 -86t-46.5 -64.5
t-68.5 -40.5t-82.5 -14zM677 1610q34 0 54.5 21.5t19.5 56.5q1 37 -19.5 58.5t-54.5 21.5t-54 -21.5t-20 -58.5q0 -35 20 -56.5t54 -21.5z" />
    <glyph glyph-name="AE" unicode="&#xc6;" horiz-adv-x="1944" 
d="M909 383h-444l-182 -383h-260v84l684 1350h1146v-232h-624v-364h446v-220h-446v-393h647v-225h-967v383zM569 602h340v600h-51z" />
    <glyph glyph-name="Ccedilla" unicode="&#xc7;" horiz-adv-x="1260" 
d="M1204 121q-80 -62 -191 -98.5t-257 -38.5v-33q87 -3 126.5 -44t39.5 -108q0 -74 -58 -115.5t-157 -41.5q-51 0 -88.5 8.5t-69.5 23.5v123h59q11 -12 29.5 -20t44.5 -8q57 0 57 38q0 19 -16.5 28t-54.5 9h-54v150q-128 19 -230 76t-174 148.5t-110.5 216t-38.5 278.5
q0 172 52.5 308.5t146 231.5t224 146t286.5 51q74 0 133 -6.5t108.5 -19t92 -30t84.5 -38.5v-240h-115q-23 22 -52 40.5t-65 32.5t-80.5 22t-97.5 8q-94 0 -166.5 -32.5t-122 -95t-75 -154.5t-25.5 -212q0 -261 93 -386.5t278 -125.5q64 0 114.5 11t91.5 30.5t74.5 45.5
t63.5 56h100v-235v0z" />
    <glyph glyph-name="Egrave" unicode="&#xc8;" horiz-adv-x="1161" 
d="M127 1434h944v-232h-629v-364h451v-220h-451v-393h652v-225h-967v1434zM559 1479l-203 176v86h303l70 -199v-63h-170z" />
    <glyph glyph-name="Eacute" unicode="&#xc9;" horiz-adv-x="1161" 
d="M127 1434h944v-232h-629v-364h451v-220h-451v-393h652v-225h-967v1434zM532 1479v63l70 199h303v-86l-203 -176h-170z" />
    <glyph glyph-name="Ecircumflex" unicode="&#xca;" horiz-adv-x="1161" 
d="M127 1434h944v-232h-629v-364h451v-220h-451v-393h652v-225h-967v1434zM342 1554l186 195h205l178 -195v-75h-164l-125 84l-124 -84h-156v75z" />
    <glyph glyph-name="Edieresis" unicode="&#xcb;" horiz-adv-x="1161" 
d="M127 1434h944v-232h-629v-364h451v-220h-451v-393h652v-225h-967v1434zM420 1481q-32 0 -60 11.5t-49 32t-33 47.5t-12 59q0 31 12 58t33 47t49 32t60 12t60 -12t49 -32t33 -47t12 -58q0 -32 -12 -59t-33 -47.5t-49 -32t-60 -11.5zM813 1481q-32 0 -60 11.5t-48.5 32
t-32.5 47.5t-12 59q0 31 12 58t32.5 47t48.5 32t60 12t60 -12t49 -32t33 -47t12 -58q0 -32 -12 -59t-33 -47.5t-49 -32t-60 -11.5z" />
    <glyph glyph-name="Igrave" unicode="&#xcc;" horiz-adv-x="588" 
d="M133 0v1434h322v-1434h-322zM227 1479l-203 176v86h303l70 -199v-63h-170z" />
    <glyph glyph-name="Iacute" unicode="&#xcd;" horiz-adv-x="588" 
d="M133 0v1434h322v-1434h-322zM199 1479v63l70 199h303v-86l-203 -176h-170z" />
    <glyph glyph-name="Icircumflex" unicode="&#xce;" horiz-adv-x="588" 
d="M133 0v1434h322v-1434h-322zM9 1554l186 195h205l178 -195v-75h-164l-125 84l-124 -84h-156v75z" />
    <glyph glyph-name="Idieresis" unicode="&#xcf;" horiz-adv-x="588" 
d="M133 0v1434h322v-1434h-322zM103 1481q-32 0 -60 11.5t-49 32t-33 47.5t-12 59q0 31 12 58t33 47t49 32t60 12t60 -12t49 -32t33 -47t12 -58q0 -32 -12 -59t-33 -47.5t-49 -32t-60 -11.5zM496 1481q-32 0 -60 11.5t-48.5 32t-32.5 47.5t-12 59q0 31 12 58t32.5 47
t48.5 32t60 12t60 -12t49 -32t33 -47t12 -58q0 -32 -12 -59t-33 -47.5t-49 -32t-60 -11.5z" />
    <glyph glyph-name="Eth" unicode="&#xd0;" horiz-adv-x="1407" 
d="M16 823h125v611h453q180 0 320.5 -42t237 -129.5t146.5 -221.5t50 -318q0 -183 -50.5 -318.5t-148 -225.5t-239 -134.5t-324.5 -44.5h-445v604h-125v219zM586 225q111 0 193 27.5t135.5 87t79.5 153t26 226.5q0 132 -26 224.5t-79 150t-135 84t-194 26.5h-125v-381h305
v-219h-305v-379h125z" />
    <glyph glyph-name="Ntilde" unicode="&#xd1;" horiz-adv-x="1419" 
d="M127 1434h362l529 -920h6v920h268v-1434h-291l-602 1047h-6v-1047h-266v1434zM426 1557q17 96 69 144t133 48q36 0 68 -8.5t59.5 -18t51 -18t42.5 -8.5q28 0 44 14.5t24 40.5h164v-77q-17 -96 -69 -144.5t-134 -48.5q-36 0 -67.5 9t-59 19.5t-50.5 19.5t-42 9
q-56 0 -70 -59h-163v78z" />
    <glyph glyph-name="Ograve" unicode="&#xd2;" horiz-adv-x="1495" 
d="M748 -16q-138 0 -262.5 48t-219.5 141t-151 230t-56 314t56 314t151 230t219.5 141t262.5 48q137 0 262 -48t219.5 -141t150.5 -230t56 -314t-56 -314t-150.5 -230t-219.5 -141t-262 -48zM748 205q78 0 144 29.5t114 91.5t75 157.5t27 227.5t-27 229t-75 160t-114 94
t-144 31q-79 0 -145.5 -31t-114.5 -94t-74.5 -160t-26.5 -229t26.5 -227.5t74.5 -157.5t114.5 -91.5t145.5 -29.5zM680 1479l-203 176v86h303l70 -199v-63h-170z" />
    <glyph glyph-name="Oacute" unicode="&#xd3;" horiz-adv-x="1495" 
d="M748 -16q-138 0 -262.5 48t-219.5 141t-151 230t-56 314t56 314t151 230t219.5 141t262.5 48q137 0 262 -48t219.5 -141t150.5 -230t56 -314t-56 -314t-150.5 -230t-219.5 -141t-262 -48zM748 205q78 0 144 29.5t114 91.5t75 157.5t27 227.5t-27 229t-75 160t-114 94
t-144 31q-79 0 -145.5 -31t-114.5 -94t-74.5 -160t-26.5 -229t26.5 -227.5t74.5 -157.5t114.5 -91.5t145.5 -29.5zM653 1479v63l70 199h303v-86l-203 -176h-170z" />
    <glyph glyph-name="Ocircumflex" unicode="&#xd4;" horiz-adv-x="1495" 
d="M748 -16q-138 0 -262.5 48t-219.5 141t-151 230t-56 314t56 314t151 230t219.5 141t262.5 48q137 0 262 -48t219.5 -141t150.5 -230t56 -314t-56 -314t-150.5 -230t-219.5 -141t-262 -48zM748 205q78 0 144 29.5t114 91.5t75 157.5t27 227.5t-27 229t-75 160t-114 94
t-144 31q-79 0 -145.5 -31t-114.5 -94t-74.5 -160t-26.5 -229t26.5 -227.5t74.5 -157.5t114.5 -91.5t145.5 -29.5zM463 1554l186 195h205l178 -195v-75h-164l-125 84l-124 -84h-156v75z" />
    <glyph glyph-name="Otilde" unicode="&#xd5;" horiz-adv-x="1495" 
d="M748 -16q-138 0 -262.5 48t-219.5 141t-151 230t-56 314t56 314t151 230t219.5 141t262.5 48q137 0 262 -48t219.5 -141t150.5 -230t56 -314t-56 -314t-150.5 -230t-219.5 -141t-262 -48zM748 205q78 0 144 29.5t114 91.5t75 157.5t27 227.5t-27 229t-75 160t-114 94
t-144 31q-79 0 -145.5 -31t-114.5 -94t-74.5 -160t-26.5 -229t26.5 -227.5t74.5 -157.5t114.5 -91.5t145.5 -29.5zM411 1557q17 96 69 144t133 48q36 0 68 -8.5t59.5 -18t51 -18t42.5 -8.5q28 0 44 14.5t24 40.5h164v-77q-17 -96 -69 -144.5t-134 -48.5q-36 0 -67.5 9
t-59 19.5t-50.5 19.5t-42 9q-56 0 -70 -59h-163v78z" />
    <glyph glyph-name="Odieresis" unicode="&#xd6;" horiz-adv-x="1495" 
d="M748 -16q-138 0 -262.5 48t-219.5 141t-151 230t-56 314t56 314t151 230t219.5 141t262.5 48q137 0 262 -48t219.5 -141t150.5 -230t56 -314t-56 -314t-150.5 -230t-219.5 -141t-262 -48zM748 205q78 0 144 29.5t114 91.5t75 157.5t27 227.5t-27 229t-75 160t-114 94
t-144 31q-79 0 -145.5 -31t-114.5 -94t-74.5 -160t-26.5 -229t26.5 -227.5t74.5 -157.5t114.5 -91.5t145.5 -29.5zM547 1481q-32 0 -60 11.5t-49 32t-33 47.5t-12 59q0 31 12 58t33 47t49 32t60 12t60 -12t49 -32t33 -47t12 -58q0 -32 -12 -59t-33 -47.5t-49 -32t-60 -11.5z
M940 1481q-32 0 -60 11.5t-48.5 32t-32.5 47.5t-12 59q0 31 12 58t32.5 47t48.5 32t60 12t60 -12t49 -32t33 -47t12 -58q0 -32 -12 -59t-33 -47.5t-49 -32t-60 -11.5z" />
    <glyph glyph-name="multiply" unicode="&#xd7;" 
d="M616 535l-299 -299l-159 159l299 299l-299 299l159 160l299 -299l299 299l158 -160l-299 -299l299 -299l-158 -159z" />
    <glyph glyph-name="Oslash" unicode="&#xd8;" horiz-adv-x="1495" 
d="M748 -16q-103 0 -196.5 25.5t-174.5 76.5l-101 -125h-198v55l153 193q-80 93 -126 219.5t-46 288.5q0 177 56 314t151 230t219.5 141t262.5 48q106 0 205 -29t184 -86l98 121h199v-55l-156 -195q74 -91 116 -212.5t42 -276.5q0 -177 -56 -314t-150.5 -230t-219.5 -141
t-262 -48zM383 711q0 -162 37 -269l559 695q-91 88 -231 88q-79 0 -146 -31t-115.5 -94t-76 -160t-27.5 -229zM748 205q78 0 144.5 29.5t115.5 91.5t76.5 157.5t27.5 227.5q0 74 -8.5 135.5t-24.5 114.5l-551 -685q45 -37 100 -54t120 -17z" />
    <glyph glyph-name="Ugrave" unicode="&#xd9;" horiz-adv-x="1389" 
d="M731 219q65 0 115.5 14.5t85 52t52 102t17.5 165.5v881h267v-873q0 -138 -30 -245.5t-96 -181t-171.5 -112t-257.5 -38.5q-146 0 -256.5 38.5t-185 112t-112.5 181t-38 245.5v873h319v-881q0 -101 19.5 -165.5t57 -102t91.5 -52t123 -14.5zM656 1479l-203 176v86h303
l70 -199v-63h-170z" />
    <glyph glyph-name="Uacute" unicode="&#xda;" horiz-adv-x="1389" 
d="M731 219q65 0 115.5 14.5t85 52t52 102t17.5 165.5v881h267v-873q0 -138 -30 -245.5t-96 -181t-171.5 -112t-257.5 -38.5q-146 0 -256.5 38.5t-185 112t-112.5 181t-38 245.5v873h319v-881q0 -101 19.5 -165.5t57 -102t91.5 -52t123 -14.5zM628 1479v63l70 199h303v-86
l-203 -176h-170z" />
    <glyph glyph-name="Ucircumflex" unicode="&#xdb;" horiz-adv-x="1389" 
d="M731 219q65 0 115.5 14.5t85 52t52 102t17.5 165.5v881h267v-873q0 -138 -30 -245.5t-96 -181t-171.5 -112t-257.5 -38.5q-146 0 -256.5 38.5t-185 112t-112.5 181t-38 245.5v873h319v-881q0 -101 19.5 -165.5t57 -102t91.5 -52t123 -14.5zM438 1554l186 195h205
l178 -195v-75h-164l-125 84l-124 -84h-156v75z" />
    <glyph glyph-name="Udieresis" unicode="&#xdc;" horiz-adv-x="1389" 
d="M731 219q65 0 115.5 14.5t85 52t52 102t17.5 165.5v881h267v-873q0 -138 -30 -245.5t-96 -181t-171.5 -112t-257.5 -38.5q-146 0 -256.5 38.5t-185 112t-112.5 181t-38 245.5v873h319v-881q0 -101 19.5 -165.5t57 -102t91.5 -52t123 -14.5zM529 1481q-32 0 -60 11.5
t-49 32t-33 47.5t-12 59q0 31 12 58t33 47t49 32t60 12t60 -12t49 -32t33 -47t12 -58q0 -32 -12 -59t-33 -47.5t-49 -32t-60 -11.5zM922 1481q-32 0 -60 11.5t-48.5 32t-32.5 47.5t-12 59q0 31 12 58t32.5 47t48.5 32t60 12t60 -12t49 -32t33 -47t12 -58q0 -32 -12 -59
t-33 -47.5t-49 -32t-60 -11.5z" />
    <glyph glyph-name="Yacute" unicode="&#xdd;" horiz-adv-x="1253" 
d="M481 0v555l-444 788v91h299l321 -603h5l309 603h246v-91l-416 -780v-563h-320zM550 1479v63l70 199h303v-86l-203 -176h-170z" />
    <glyph glyph-name="Thorn" unicode="&#xde;" horiz-adv-x="1221" 
d="M127 1434h319v-265h156q136 0 242 -26.5t178.5 -81t110.5 -137.5t38 -197q0 -113 -38.5 -196.5t-112 -138.5t-181 -82t-245.5 -27h-148v-283h-319v1434zM446 498h148q73 0 122 14.5t79 42.5t42.5 70t12.5 98t-11.5 97t-40.5 67.5t-78.5 39.5t-125.5 13h-148v-442z" />
    <glyph glyph-name="germandbls" unicode="&#xdf;" horiz-adv-x="1266" 
d="M113 1038q0 94 34 171t100.5 131.5t165 84t228.5 29.5q101 0 184 -18.5t142 -57.5t91 -98.5t32 -140.5q0 -40 -14 -76t-38 -68.5t-55.5 -61.5t-67.5 -56q-35 -26 -56.5 -45t-34 -33.5t-17 -27t-4.5 -26.5q0 -12 5 -23t19.5 -22.5t41 -25t69.5 -31.5q70 -29 122.5 -59.5
t87.5 -69.5t53 -89.5t18 -119.5q0 -68 -26 -126.5t-78.5 -101.5t-130.5 -67t-181 -24q-84 0 -157 18.5t-120 50.5v221h92q13 -11 30.5 -23.5t40.5 -23t51 -17.5t63 -7q66 0 103.5 22t37.5 54q0 20 -8.5 34.5t-29 28t-55.5 29t-89 37.5q-52 20 -93.5 46.5t-71 61t-45 77.5
t-15.5 95q0 49 12 86.5t32.5 69.5t48.5 61.5t60 61.5q24 24 43.5 43t33 37t21 37t7.5 42q0 51 -39 82t-119 31q-62 0 -104.5 -15t-69.5 -43t-39 -67.5t-12 -87.5v-1028h-299v1038z" />
    <glyph glyph-name="agrave" unicode="&#xe0;" horiz-adv-x="1102" 
d="M870 0q-35 0 -61.5 4.5t-45 16.5t-31 32.5t-19.5 52.5q-59 -65 -136 -91.5t-176 -26.5q-75 0 -139 20.5t-110.5 61t-72.5 101t-26 140.5q0 85 32 148t89 105t135.5 62.5t171.5 20.5q66 0 116 -6t99 -18v102q0 73 -44.5 111t-151.5 38q-85 0 -155 -23t-124 -60h-84v210
q39 18 82 34.5t93.5 29t108.5 20t126 7.5q111 0 195 -19.5t140.5 -61t84.5 -107.5t28 -159v-745h-125zM696 463q-71 12 -153 12q-91 0 -145 -34.5t-54 -112.5q0 -79 46.5 -115.5t121.5 -36.5q56 0 101.5 24t82.5 58v205zM459 1151l-203 197v86h303l70 -220v-63h-170z" />
    <glyph glyph-name="aacute" unicode="&#xe1;" horiz-adv-x="1102" 
d="M870 0q-35 0 -61.5 4.5t-45 16.5t-31 32.5t-19.5 52.5q-59 -65 -136 -91.5t-176 -26.5q-75 0 -139 20.5t-110.5 61t-72.5 101t-26 140.5q0 85 32 148t89 105t135.5 62.5t171.5 20.5q66 0 116 -6t99 -18v102q0 73 -44.5 111t-151.5 38q-85 0 -155 -23t-124 -60h-84v210
q39 18 82 34.5t93.5 29t108.5 20t126 7.5q111 0 195 -19.5t140.5 -61t84.5 -107.5t28 -159v-745h-125zM696 463q-71 12 -153 12q-91 0 -145 -34.5t-54 -112.5q0 -79 46.5 -115.5t121.5 -36.5q56 0 101.5 24t82.5 58v205zM464 1151v63l70 220h303v-86l-203 -197h-170z" />
    <glyph glyph-name="acircumflex" unicode="&#xe2;" horiz-adv-x="1102" 
d="M870 0q-35 0 -61.5 4.5t-45 16.5t-31 32.5t-19.5 52.5q-59 -65 -136 -91.5t-176 -26.5q-75 0 -139 20.5t-110.5 61t-72.5 101t-26 140.5q0 85 32 148t89 105t135.5 62.5t171.5 20.5q66 0 116 -6t99 -18v102q0 73 -44.5 111t-151.5 38q-85 0 -155 -23t-124 -60h-84v210
q39 18 82 34.5t93.5 29t108.5 20t126 7.5q111 0 195 -19.5t140.5 -61t84.5 -107.5t28 -159v-745h-125zM696 463q-71 12 -153 12q-91 0 -145 -34.5t-54 -112.5q0 -79 46.5 -115.5t121.5 -36.5q56 0 101.5 24t82.5 58v205zM260 1227l186 207h205l178 -207v-76h-164l-125 96
l-124 -96h-156v76z" />
    <glyph glyph-name="atilde" unicode="&#xe3;" horiz-adv-x="1102" 
d="M870 0q-35 0 -61.5 4.5t-45 16.5t-31 32.5t-19.5 52.5q-59 -65 -136 -91.5t-176 -26.5q-75 0 -139 20.5t-110.5 61t-72.5 101t-26 140.5q0 85 32 148t89 105t135.5 62.5t171.5 20.5q66 0 116 -6t99 -18v102q0 73 -44.5 111t-151.5 38q-85 0 -155 -23t-124 -60h-84v210
q39 18 82 34.5t93.5 29t108.5 20t126 7.5q111 0 195 -19.5t140.5 -61t84.5 -107.5t28 -159v-745h-125zM696 463q-71 12 -153 12q-91 0 -145 -34.5t-54 -112.5q0 -79 46.5 -115.5t121.5 -36.5q56 0 101.5 24t82.5 58v205zM218 1233q17 96 69 144t133 48q36 0 68 -8.5
t59.5 -18t51 -18t42.5 -8.5q28 0 44 14.5t24 40.5h164v-77q-17 -96 -69 -144.5t-134 -48.5q-36 0 -67.5 9t-59 19.5t-50.5 19.5t-42 9q-56 0 -70 -59h-163v78z" />
    <glyph glyph-name="adieresis" unicode="&#xe4;" horiz-adv-x="1102" 
d="M870 0q-35 0 -61.5 4.5t-45 16.5t-31 32.5t-19.5 52.5q-59 -65 -136 -91.5t-176 -26.5q-75 0 -139 20.5t-110.5 61t-72.5 101t-26 140.5q0 85 32 148t89 105t135.5 62.5t171.5 20.5q66 0 116 -6t99 -18v102q0 73 -44.5 111t-151.5 38q-85 0 -155 -23t-124 -60h-84v210
q39 18 82 34.5t93.5 29t108.5 20t126 7.5q111 0 195 -19.5t140.5 -61t84.5 -107.5t28 -159v-745h-125zM696 463q-71 12 -153 12q-91 0 -145 -34.5t-54 -112.5q0 -79 46.5 -115.5t121.5 -36.5q56 0 101.5 24t82.5 58v205zM348 1159q-32 0 -60 11.5t-49 32t-33 47.5t-12 59
q0 31 12 58t33 47t49 32t60 12t60 -12t49 -32t33 -47t12 -58q0 -32 -12 -59t-33 -47.5t-49 -32t-60 -11.5zM741 1159q-32 0 -60 11.5t-48.5 32t-32.5 47.5t-12 59q0 31 12 58t32.5 47t48.5 32t60 12t60 -12t49 -32t33 -47t12 -58q0 -32 -12 -59t-33 -47.5t-49 -32t-60 -11.5
z" />
    <glyph glyph-name="aring" unicode="&#xe5;" horiz-adv-x="1102" 
d="M870 0q-35 0 -61.5 4.5t-45 16.5t-31 32.5t-19.5 52.5q-59 -65 -136 -91.5t-176 -26.5q-75 0 -139 20.5t-110.5 61t-72.5 101t-26 140.5q0 85 32 148t89 105t135.5 62.5t171.5 20.5q66 0 116 -6t99 -18v102q0 73 -44.5 111t-151.5 38q-85 0 -155 -23t-124 -60h-84v210
q39 18 82 34.5t93.5 29t108.5 20t126 7.5q111 0 195 -19.5t140.5 -61t84.5 -107.5t28 -159v-745h-125zM696 463q-71 12 -153 12q-91 0 -145 -34.5t-54 -112.5q0 -79 46.5 -115.5t121.5 -36.5q56 0 101.5 24t82.5 58v205zM545 1159q-44 0 -83 14t-68.5 40.5t-46.5 64.5
t-17 86t17 86t46.5 65t68.5 41.5t83 14.5q43 0 82.5 -14.5t68.5 -41.5t46.5 -65t17.5 -86t-17.5 -86t-46.5 -64.5t-68.5 -40.5t-82.5 -14zM545 1286q34 0 54.5 21.5t19.5 56.5q1 37 -19.5 58.5t-54.5 21.5t-54 -21.5t-20 -58.5q0 -35 20 -56.5t54 -21.5z" />
    <glyph glyph-name="ae" unicode="&#xe6;" horiz-adv-x="1749" 
d="M547 1092q128 0 210.5 -25.5t129.5 -81.5q66 51 148.5 79t178.5 28q237 0 360.5 -131.5t123.5 -397.5q0 -28 -2 -56t-2 -36h-697q6 -81 27.5 -133.5t57.5 -84t86 -44t112 -12.5q91 0 161.5 26t123.5 64h92v-197q-32 -18 -72 -36.5t-91 -33.5t-114.5 -24.5t-144.5 -9.5
q-144 0 -250.5 43t-175.5 125q-63 -76 -156 -121t-221 -45q-87 0 -157 20t-119.5 60.5t-76 102t-26.5 144.5q0 81 32.5 144t91 105.5t141 64.5t182.5 22h196v74q0 73 -44.5 111t-151.5 38q-85 0 -155 -23t-124 -60h-84v210q39 18 82 34.5t93.5 29t108.5 20t126 7.5zM504 176
q43 0 77.5 9t62 23.5t49.5 33.5t40 39q-17 42 -27.5 89.5t-13.5 100.5h-153q-44 0 -80 -7.5t-61.5 -25t-39.5 -44.5t-14 -66t12 -68t33.5 -47.5t50.5 -27.5t64 -9zM1214 903q-39 0 -74 -11t-63 -39.5t-47.5 -77.5t-28.5 -124h402q-2 72 -15.5 120t-37.5 77.5t-58 42
t-78 12.5z" />
    <glyph glyph-name="ccedilla" unicode="&#xe7;" horiz-adv-x="1022" 
d="M457 0q-96 20 -171 65t-127 113t-79 158t-27 199q0 130 43.5 233t120 175t181.5 110.5t227 38.5q63 0 113 -6.5t90 -17t71 -24t55 -26.5v-223h-114q-32 31 -87.5 54t-127.5 23q-59 0 -108 -21.5t-85 -64t-56 -106t-20 -148.5q0 -87 19 -149t53.5 -102t82.5 -59t105 -19
q48 0 85 7.5t66 19.5t50.5 27.5t38.5 31.5h102v-205q-24 -16 -58.5 -33.5t-78 -31.5t-96.5 -23.5t-115 -9.5h-12v-35q88 -3 127 -43.5t39 -108.5q0 -74 -58 -115.5t-157 -41.5q-51 0 -88.5 8.5t-69.5 23.5v123h60q11 -12 29 -20t44 -8q58 0 58 38q0 19 -17 28t-55 9h-53v156
v0z" />
    <glyph glyph-name="egrave" unicode="&#xe8;" horiz-adv-x="1112" 
d="M360 471q6 -81 27.5 -133.5t57.5 -84t86 -44t112 -12.5q91 0 161.5 26t123.5 64h92v-197q-32 -18 -72 -36.5t-91 -33.5t-114.5 -24.5t-144.5 -9.5q-132 0 -233.5 38t-171 108.5t-105 172t-35.5 227.5q0 130 40 234t110.5 176.5t166.5 111t208 38.5q236 0 359.5 -131.5
t123.5 -397.5q0 -28 -2 -56t-2 -36h-697zM578 903q-39 0 -74.5 -11t-63.5 -39.5t-47.5 -77.5t-27.5 -124h401q-2 72 -15.5 120t-37.5 77.5t-58 42t-77 12.5zM486 1151l-203 197v86h303l70 -220v-63h-170z" />
    <glyph glyph-name="eacute" unicode="&#xe9;" horiz-adv-x="1112" 
d="M360 471q6 -81 27.5 -133.5t57.5 -84t86 -44t112 -12.5q91 0 161.5 26t123.5 64h92v-197q-32 -18 -72 -36.5t-91 -33.5t-114.5 -24.5t-144.5 -9.5q-132 0 -233.5 38t-171 108.5t-105 172t-35.5 227.5q0 130 40 234t110.5 176.5t166.5 111t208 38.5q236 0 359.5 -131.5
t123.5 -397.5q0 -28 -2 -56t-2 -36h-697zM578 903q-39 0 -74.5 -11t-63.5 -39.5t-47.5 -77.5t-27.5 -124h401q-2 72 -15.5 120t-37.5 77.5t-58 42t-77 12.5zM491 1151v63l70 220h303v-86l-203 -197h-170z" />
    <glyph glyph-name="ecircumflex" unicode="&#xea;" horiz-adv-x="1112" 
d="M360 471q6 -81 27.5 -133.5t57.5 -84t86 -44t112 -12.5q91 0 161.5 26t123.5 64h92v-197q-32 -18 -72 -36.5t-91 -33.5t-114.5 -24.5t-144.5 -9.5q-132 0 -233.5 38t-171 108.5t-105 172t-35.5 227.5q0 130 40 234t110.5 176.5t166.5 111t208 38.5q236 0 359.5 -131.5
t123.5 -397.5q0 -28 -2 -56t-2 -36h-697zM578 903q-39 0 -74.5 -11t-63.5 -39.5t-47.5 -77.5t-27.5 -124h401q-2 72 -15.5 120t-37.5 77.5t-58 42t-77 12.5zM287 1227l186 207h205l178 -207v-76h-164l-125 96l-124 -96h-156v76z" />
    <glyph glyph-name="edieresis" unicode="&#xeb;" horiz-adv-x="1112" 
d="M360 471q6 -81 27.5 -133.5t57.5 -84t86 -44t112 -12.5q91 0 161.5 26t123.5 64h92v-197q-32 -18 -72 -36.5t-91 -33.5t-114.5 -24.5t-144.5 -9.5q-132 0 -233.5 38t-171 108.5t-105 172t-35.5 227.5q0 130 40 234t110.5 176.5t166.5 111t208 38.5q236 0 359.5 -131.5
t123.5 -397.5q0 -28 -2 -56t-2 -36h-697zM578 903q-39 0 -74.5 -11t-63.5 -39.5t-47.5 -77.5t-27.5 -124h401q-2 72 -15.5 120t-37.5 77.5t-58 42t-77 12.5zM375 1159q-32 0 -60 11.5t-49 32t-33 47.5t-12 59q0 31 12 58t33 47t49 32t60 12t60 -12t49 -32t33 -47t12 -58
q0 -32 -12 -59t-33 -47.5t-49 -32t-60 -11.5zM768 1159q-32 0 -60 11.5t-48.5 32t-32.5 47.5t-12 59q0 31 12 58t32.5 47t48.5 32t60 12t60 -12t49 -32t33 -47t12 -58q0 -32 -12 -59t-33 -47.5t-49 -32t-60 -11.5z" />
    <glyph glyph-name="igrave" unicode="&#xec;" horiz-adv-x="530" 
d="M115 0v1075h186q37 0 59 -7.5t34 -29t16 -60t4 -99.5v-879h-299zM200 1151l-203 197v86h303l70 -220v-63h-170z" />
    <glyph glyph-name="iacute" unicode="&#xed;" horiz-adv-x="530" 
d="M115 0v1075h186q37 0 59 -7.5t34 -29t16 -60t4 -99.5v-879h-299zM150 1151v63l70 220h303v-86l-203 -197h-170z" />
    <glyph glyph-name="icircumflex" unicode="&#xee;" horiz-adv-x="530" 
d="M115 0v1075h186q37 0 59 -7.5t34 -29t16 -60t4 -99.5v-879h-299zM-19 1227l186 207h205l178 -207v-76h-164l-125 96l-124 -96h-156v76z" />
    <glyph glyph-name="idieresis" unicode="&#xef;" horiz-adv-x="530" 
d="M115 0v1075h186q37 0 59 -7.5t34 -29t16 -60t4 -99.5v-879h-299zM69 1159q-32 0 -60 11.5t-49 32t-33 47.5t-12 59q0 31 12 58t33 47t49 32t60 12t60 -12t49 -32t33 -47t12 -58q0 -32 -12 -59t-33 -47.5t-49 -32t-60 -11.5zM462 1159q-32 0 -60 11.5t-48.5 32t-32.5 47.5
t-12 59q0 31 12 58t32.5 47t48.5 32t60 12t60 -12t49 -32t33 -47t12 -58q0 -32 -12 -59t-33 -47.5t-49 -32t-60 -11.5z" />
    <glyph glyph-name="eth" unicode="&#xf0;" horiz-adv-x="1204" 
d="M459 1210q-29 10 -59 17.5l-62 15.5v191h100q109 -20 203 -54l55 52h189v-50l-86 -79q169 -108 260.5 -290.5t91.5 -437.5q0 -154 -43.5 -265.5t-119 -183.5t-177.5 -106t-219 -34t-216 36.5t-171 104.5t-112 166t-40 221t36 219.5t101 163.5t154.5 102t196.5 35
q48 0 86.5 -8t70 -22.5t57.5 -35t50 -44.5q-31 71 -77.5 123.5t-106.5 91.5l-60 -56h-188v50zM612 199q113 0 174.5 77.5t61.5 235.5q0 159 -61.5 238t-174.5 79q-56 0 -103 -20t-81 -59.5t-53 -99t-19 -138.5q0 -78 19 -137t53 -98t81 -58.5t103 -19.5z" />
    <glyph glyph-name="ntilde" unicode="&#xf1;" horiz-adv-x="1194" 
d="M315 1075q19 0 34.5 -5t26.5 -17.5t19 -35t13 -56.5q37 27 83 51t96 42t104 28t108 10q58 0 110.5 -13t92 -47t62.5 -92.5t23 -148.5v-791h-299v715q0 40 -7.5 66t-24 42t-41.5 22.5t-60 6.5q-69 0 -130.5 -15.5t-112.5 -33.5v-803h-299v1075h202v0zM279 1233
q17 96 69 144t133 48q36 0 68 -8.5t59.5 -18t51 -18t42.5 -8.5q28 0 44 14.5t24 40.5h164v-77q-17 -96 -69 -144.5t-134 -48.5q-36 0 -67.5 9t-59 19.5t-50.5 19.5t-42 9q-56 0 -70 -59h-163v78z" />
    <glyph glyph-name="ograve" unicode="&#xf2;" horiz-adv-x="1204" 
d="M602 -14q-114 0 -214 37t-174.5 107t-117.5 171.5t-43 230.5q0 130 43 234t117.5 176.5t174.5 111t214 38.5t214 -38.5t174.5 -111t117.5 -176.5t43 -234q0 -129 -43 -230.5t-117.5 -171.5t-174.5 -107t-214 -37zM602 199q55 0 100 19t77.5 59.5t50.5 103t18 149.5
q0 88 -18 153.5t-50.5 109t-77.5 65t-100 21.5q-54 0 -99.5 -21.5t-78 -65t-50.5 -109t-18 -153.5q0 -87 18 -149.5t50.5 -103t78 -59.5t99.5 -19zM516 1151l-203 197v86h303l70 -220v-63h-170z" />
    <glyph glyph-name="oacute" unicode="&#xf3;" horiz-adv-x="1204" 
d="M602 -14q-114 0 -214 37t-174.5 107t-117.5 171.5t-43 230.5q0 130 43 234t117.5 176.5t174.5 111t214 38.5t214 -38.5t174.5 -111t117.5 -176.5t43 -234q0 -129 -43 -230.5t-117.5 -171.5t-174.5 -107t-214 -37zM602 199q55 0 100 19t77.5 59.5t50.5 103t18 149.5
q0 88 -18 153.5t-50.5 109t-77.5 65t-100 21.5q-54 0 -99.5 -21.5t-78 -65t-50.5 -109t-18 -153.5q0 -87 18 -149.5t50.5 -103t78 -59.5t99.5 -19zM522 1151v63l70 220h303v-86l-203 -197h-170z" />
    <glyph glyph-name="ocircumflex" unicode="&#xf4;" horiz-adv-x="1204" 
d="M602 -14q-114 0 -214 37t-174.5 107t-117.5 171.5t-43 230.5q0 130 43 234t117.5 176.5t174.5 111t214 38.5t214 -38.5t174.5 -111t117.5 -176.5t43 -234q0 -129 -43 -230.5t-117.5 -171.5t-174.5 -107t-214 -37zM602 199q55 0 100 19t77.5 59.5t50.5 103t18 149.5
q0 88 -18 153.5t-50.5 109t-77.5 65t-100 21.5q-54 0 -99.5 -21.5t-78 -65t-50.5 -109t-18 -153.5q0 -87 18 -149.5t50.5 -103t78 -59.5t99.5 -19zM318 1227l186 207h205l178 -207v-76h-164l-125 96l-124 -96h-156v76z" />
    <glyph glyph-name="otilde" unicode="&#xf5;" horiz-adv-x="1204" 
d="M602 -14q-114 0 -214 37t-174.5 107t-117.5 171.5t-43 230.5q0 130 43 234t117.5 176.5t174.5 111t214 38.5t214 -38.5t174.5 -111t117.5 -176.5t43 -234q0 -129 -43 -230.5t-117.5 -171.5t-174.5 -107t-214 -37zM602 199q55 0 100 19t77.5 59.5t50.5 103t18 149.5
q0 88 -18 153.5t-50.5 109t-77.5 65t-100 21.5q-54 0 -99.5 -21.5t-78 -65t-50.5 -109t-18 -153.5q0 -87 18 -149.5t50.5 -103t78 -59.5t99.5 -19zM275 1233q17 96 69 144t133 48q36 0 68 -8.5t59.5 -18t51 -18t42.5 -8.5q28 0 44 14.5t24 40.5h164v-77q-17 -96 -69 -144.5
t-134 -48.5q-36 0 -67.5 9t-59 19.5t-50.5 19.5t-42 9q-56 0 -70 -59h-163v78z" />
    <glyph glyph-name="odieresis" unicode="&#xf6;" horiz-adv-x="1204" 
d="M602 -14q-114 0 -214 37t-174.5 107t-117.5 171.5t-43 230.5q0 130 43 234t117.5 176.5t174.5 111t214 38.5t214 -38.5t174.5 -111t117.5 -176.5t43 -234q0 -129 -43 -230.5t-117.5 -171.5t-174.5 -107t-214 -37zM602 199q55 0 100 19t77.5 59.5t50.5 103t18 149.5
q0 88 -18 153.5t-50.5 109t-77.5 65t-100 21.5q-54 0 -99.5 -21.5t-78 -65t-50.5 -109t-18 -153.5q0 -87 18 -149.5t50.5 -103t78 -59.5t99.5 -19zM406 1159q-32 0 -60 11.5t-49 32t-33 47.5t-12 59q0 31 12 58t33 47t49 32t60 12t60 -12t49 -32t33 -47t12 -58
q0 -32 -12 -59t-33 -47.5t-49 -32t-60 -11.5zM799 1159q-32 0 -60 11.5t-48.5 32t-32.5 47.5t-12 59q0 31 12 58t32.5 47t48.5 32t60 12t60 -12t49 -32t33 -47t12 -58q0 -32 -12 -59t-33 -47.5t-49 -32t-60 -11.5z" />
    <glyph glyph-name="divide" unicode="&#xf7;" 
d="M127 590v235h977v-235h-977zM616 909q-35 0 -65.5 12.5t-53 35t-35.5 52t-13 64.5q0 34 13 64.5t35.5 53t53 35.5t65.5 13t65.5 -13t53.5 -35.5t36 -53t13 -64.5q0 -35 -13 -64.5t-36 -52t-53.5 -35t-65.5 -12.5zM616 176q-35 0 -65.5 12.5t-53 35t-35.5 52t-13 64.5
q0 34 13 64.5t35.5 53t53 35.5t65.5 13t65.5 -13t53.5 -35.5t36 -53t13 -64.5q0 -35 -13 -64.5t-36 -52t-53.5 -35t-65.5 -12.5z" />
    <glyph glyph-name="oslash" unicode="&#xf8;" horiz-adv-x="1204" 
d="M602 -14q-75 0 -144.5 16t-129.5 47l-80 -100h-170v55l115 146q-66 71 -103 166.5t-37 215.5q0 130 43 234t117.5 176.5t174.5 111t214 38.5q78 0 148.5 -18t132.5 -52l69 88h172v-55l-110 -140q65 -71 101 -167.5t36 -215.5q0 -129 -43 -230.5t-117.5 -171.5
t-174.5 -107t-214 -37zM350 530q0 -93 17 -159l372 471q-59 39 -137 39q-54 0 -100.5 -22t-80 -66t-52.5 -109.5t-19 -153.5zM602 188q55 0 101 21t79.5 63.5t52.5 106.5t19 151q0 95 -18 160l-371 -467q57 -35 137 -35z" />
    <glyph glyph-name="ugrave" unicode="&#xf9;" horiz-adv-x="1219" 
d="M569 209q57 0 116.5 16.5t109.5 36.5v813h299v-1075h-203q-18 0 -33 4t-26 14.5t-19 30t-12 51.5q-76 -52 -173 -83t-196 -31q-68 0 -125 14t-99 48t-65.5 89.5t-23.5 138.5v799h299v-723q0 -44 10.5 -71.5t30 -43.5t47.5 -22t63 -6zM522 1151l-203 197v86h303l70 -220
v-63h-170z" />
    <glyph glyph-name="uacute" unicode="&#xfa;" horiz-adv-x="1219" 
d="M569 209q57 0 116.5 16.5t109.5 36.5v813h299v-1075h-203q-18 0 -33 4t-26 14.5t-19 30t-12 51.5q-76 -52 -173 -83t-196 -31q-68 0 -125 14t-99 48t-65.5 89.5t-23.5 138.5v799h299v-723q0 -44 10.5 -71.5t30 -43.5t47.5 -22t63 -6zM528 1151v63l70 220h303v-86
l-203 -197h-170z" />
    <glyph glyph-name="ucircumflex" unicode="&#xfb;" horiz-adv-x="1219" 
d="M569 209q57 0 116.5 16.5t109.5 36.5v813h299v-1075h-203q-18 0 -33 4t-26 14.5t-19 30t-12 51.5q-76 -52 -173 -83t-196 -31q-68 0 -125 14t-99 48t-65.5 89.5t-23.5 138.5v799h299v-723q0 -44 10.5 -71.5t30 -43.5t47.5 -22t63 -6zM324 1227l186 207h205l178 -207v-76
h-164l-125 96l-124 -96h-156v76z" />
    <glyph glyph-name="udieresis" unicode="&#xfc;" horiz-adv-x="1219" 
d="M569 209q57 0 116.5 16.5t109.5 36.5v813h299v-1075h-203q-18 0 -33 4t-26 14.5t-19 30t-12 51.5q-76 -52 -173 -83t-196 -31q-68 0 -125 14t-99 48t-65.5 89.5t-23.5 138.5v799h299v-723q0 -44 10.5 -71.5t30 -43.5t47.5 -22t63 -6zM412 1159q-32 0 -60 11.5t-49 32
t-33 47.5t-12 59q0 31 12 58t33 47t49 32t60 12t60 -12t49 -32t33 -47t12 -58q0 -32 -12 -59t-33 -47.5t-49 -32t-60 -11.5zM805 1159q-32 0 -60 11.5t-48.5 32t-32.5 47.5t-12 59q0 31 12 58t32.5 47t48.5 32t60 12t60 -12t49 -32t33 -47t12 -58q0 -32 -12 -59t-33 -47.5
t-49 -32t-60 -11.5z" />
    <glyph glyph-name="yacute" unicode="&#xfd;" horiz-adv-x="1124" 
d="M297 -252l145 305l-403 944v78h280l265 -663h4l243 663h256v-78l-534 -1329h-256v80zM505 1151v63l70 220h303v-86l-203 -197h-170z" />
    <glyph glyph-name="thorn" unicode="&#xfe;" horiz-adv-x="1204" 
d="M412 975q30 24 64 45.5t74 37.5t86.5 25t100.5 9q78 0 152 -28.5t132.5 -91.5t94 -163t35.5 -244q0 -152 -40 -257.5t-105.5 -171t-150.5 -95t-175 -29.5q-88 0 -152.5 20.5t-115.5 57.5v-422h-299v1766h182q37 0 59.5 -6t35.5 -24t17.5 -51t4.5 -87v-291zM614 862
q-22 0 -48 -4t-52.5 -11.5t-52.5 -17t-49 -20.5v-530q75 -60 192 -60q49 0 93.5 13t78 48.5t53 97.5t19.5 161q0 97 -18.5 160t-50.5 99t-74.5 50t-90.5 14z" />
    <glyph glyph-name="ydieresis" unicode="&#xff;" horiz-adv-x="1124" 
d="M297 -252l145 305l-403 944v78h280l265 -663h4l243 663h256v-78l-534 -1329h-256v80zM389 1159q-32 0 -60 11.5t-49 32t-33 47.5t-12 59q0 31 12 58t33 47t49 32t60 12t60 -12t49 -32t33 -47t12 -58q0 -32 -12 -59t-33 -47.5t-49 -32t-60 -11.5zM782 1159q-32 0 -60 11.5
t-48.5 32t-32.5 47.5t-12 59q0 31 12 58t32.5 47t48.5 32t60 12t60 -12t49 -32t33 -47t12 -58q0 -32 -12 -59t-33 -47.5t-49 -32t-60 -11.5z" />
    <glyph glyph-name="dotlessi" unicode="&#x131;" horiz-adv-x="530" 
d="M115 0v1075h186q37 0 59 -7.5t34 -29t16 -60t4 -99.5v-879h-299z" />
    <glyph glyph-name="Lslash" unicode="&#x141;" horiz-adv-x="1133" 
d="M160 0v473l-140 -53v217l140 53v744h319v-619l377 148v-218l-377 -147v-373h592v-225h-911z" />
    <glyph glyph-name="lslash" unicode="&#x142;" horiz-adv-x="565" 
d="M133 0v606l-123 -69v217l123 69v611h182q38 0 61 -6t35.5 -24t16.5 -51t4 -87v-275l131 74v-217l-131 -74v-774h-299z" />
    <glyph glyph-name="OE" unicode="&#x152;" horiz-adv-x="1952" 
d="M813 0q-180 0 -320.5 42t-237 129t-146.5 221t-50 319q0 183 50.5 318.5t148 225.5t239 134.5t324.5 44.5h1041v-232h-611v-364h432v-220h-432v-393h633v-225h-1071zM821 1202q-111 0 -193 -26.5t-135.5 -84.5t-79.5 -150.5t-26 -225.5q0 -132 26 -225.5t79 -152
t135 -85.5t194 -27h111v977h-111z" />
    <glyph glyph-name="oe" unicode="&#x153;" horiz-adv-x="1907" 
d="M602 -14q-114 0 -214 37t-174.5 107t-117.5 171.5t-43 230.5q0 130 43 234t117.5 176.5t174.5 111t214 38.5q122 0 222 -44.5t169 -127.5q65 83 161 127.5t218 44.5q237 0 360 -131.5t123 -397.5q0 -28 -2 -56t-2 -36h-696q5 -81 26.5 -133.5t58 -84t86.5 -44t112 -12.5
q91 0 161.5 26t122.5 64h93v-197q-32 -18 -72 -36.5t-91 -33.5t-114.5 -24.5t-144.5 -9.5q-141 0 -241 41.5t-163 119.5q-69 -78 -167.5 -119.5t-219.5 -41.5zM602 195q55 0 100 20t77.5 61t50.5 104t18 150q0 88 -18 152.5t-50.5 107t-77.5 63.5t-100 21q-54 0 -99.5 -21
t-78 -63.5t-50.5 -107t-18 -152.5q0 -87 18 -150t50.5 -104t78 -61t99.5 -20zM1372 903q-39 0 -74 -11t-63 -39.5t-47.5 -77.5t-28.5 -124h402q-3 72 -16 120t-37 77.5t-58 42t-78 12.5z" />
    <glyph glyph-name="Scaron" unicode="&#x160;" horiz-adv-x="1073" 
d="M497 -16q-77 0 -140.5 8t-118.5 23t-103 36t-93 47v244h105q24 -26 56.5 -49.5t74.5 -41.5t94 -29t115 -11q131 0 194.5 46t63.5 130q0 58 -25 92t-67.5 56t-98.5 36.5t-117 32.5q-99 29 -171.5 66t-120 87t-70.5 117.5t-23 157.5q0 105 37 183t104 130.5t159 78.5
t202 26q127 0 229 -26t170 -68v-232h-100q-57 42 -126 69.5t-161 27.5q-117 0 -178 -39t-61 -127q0 -43 17.5 -72.5t50.5 -51t82 -37.5t112 -32q117 -30 201 -65.5t138 -86.5t79.5 -121t25.5 -169q0 -209 -136 -322.5t-400 -113.5zM831 1673l-186 -194h-205l-178 194v76h164
l125 -84l125 84h155v-76z" />
    <glyph glyph-name="scaron" unicode="&#x161;" horiz-adv-x="932" 
d="M434 -12q-66 0 -120.5 7t-100.5 19t-83.5 28t-68.5 34v221h95q18 -17 44 -33t59.5 -29t73.5 -20.5t87 -7.5q184 0 184 100q0 25 -8.5 43.5t-30 32t-58 23t-93.5 16.5q-89 11 -156 34t-113 62t-69 96t-23 136q0 81 29.5 144t84.5 106t134 65t178 22q58 0 106.5 -5.5
t89 -15t75.5 -23t67 -29.5v-217h-90q-37 28 -99.5 49.5t-146.5 21.5q-87 0 -124.5 -25t-37.5 -71q0 -41 45.5 -65t155.5 -37q96 -12 164.5 -35.5t113 -62.5t65 -97t20.5 -139q0 -79 -26.5 -143.5t-81.5 -110t-139.5 -70t-201.5 -24.5zM755 1358l-186 -207h-205l-178 207v76
h164l125 -97l125 97h155v-76z" />
    <glyph glyph-name="Ydieresis" unicode="&#x178;" horiz-adv-x="1253" 
d="M481 0v555l-444 788v91h299l321 -603h5l309 603h246v-91l-416 -780v-563h-320zM457 1481q-32 0 -60 11.5t-49 32t-33 47.5t-12 59q0 31 12 58t33 47t49 32t60 12t60 -12t49 -32t33 -47t12 -58q0 -32 -12 -59t-33 -47.5t-49 -32t-60 -11.5zM850 1481q-32 0 -60 11.5
t-48.5 32t-32.5 47.5t-12 59q0 31 12 58t32.5 47t48.5 32t60 12t60 -12t49 -32t33 -47t12 -58q0 -32 -12 -59t-33 -47.5t-49 -32t-60 -11.5z" />
    <glyph glyph-name="Zcaron" unicode="&#x17d;" horiz-adv-x="1133" 
d="M49 242l686 956v8h-633v228h971v-248l-686 -957v-8h686v-221h-1024v242zM878 1673l-186 -194h-205l-178 194v76h164l125 -84l125 84h155v-76z" />
    <glyph glyph-name="zcaron" unicode="&#x17e;" horiz-adv-x="1010" 
d="M59 207l549 657h-516v211h848v-209l-551 -655h537v-211h-867v207zM801 1358l-186 -207h-205l-178 207v76h164l125 -97l125 97h155v-76z" />
    <glyph glyph-name="florin" unicode="&#x192;" 
d="M432 909l31 248q18 152 103.5 224.5t244.5 72.5q32 0 57.5 -2t45.5 -6t37 -9.5t32 -11.5v-178h-76q-32 0 -55.5 -4t-40 -15t-26 -30.5t-13.5 -50.5l-29 -238h218v-200h-242l-111 -914h-309l109 914h-160v200h184z" />
    <glyph glyph-name="circumflex" unicode="&#x2c6;" horiz-adv-x="819" 
d="M123 1227l186 207h205l178 -207v-76h-164l-125 96l-124 -96h-156v76z" />
    <glyph glyph-name="caron" unicode="&#x2c7;" horiz-adv-x="819" 
d="M692 1358l-186 -207h-205l-178 207v76h164l125 -97l125 97h155v-76z" />
    <glyph glyph-name="breve" unicode="&#x2d8;" horiz-adv-x="819" 
d="M410 1153q-61 0 -109 17.5t-82.5 46t-56 65.5t-29.5 76v76h189q3 -39 23.5 -62.5t64.5 -23.5q43 0 63 23.5t25 62.5h188v-76q-8 -39 -29 -76t-56 -65.5t-83 -46t-108 -17.5z" />
    <glyph glyph-name="dotaccent" unicode="&#x2d9;" horiz-adv-x="819" 
d="M410 1159q-34 0 -63.5 12.5t-51.5 33.5t-34.5 50t-12.5 62t12.5 62t34.5 51t51.5 34.5t63.5 12.5t63 -12.5t51 -34.5t34.5 -51t12.5 -62t-12.5 -62t-34.5 -50t-51 -33.5t-63 -12.5z" />
    <glyph glyph-name="ring" unicode="&#x2da;" horiz-adv-x="819" 
d="M410 1159q-44 0 -83 14t-68.5 40.5t-46.5 64.5t-17 86t17 86t46.5 65t68.5 41.5t83 14.5q43 0 82.5 -14.5t68.5 -41.5t46.5 -65t17.5 -86t-17.5 -86t-46.5 -64.5t-68.5 -40.5t-82.5 -14zM410 1286q34 0 54.5 21.5t19.5 56.5q1 37 -19.5 58.5t-54.5 21.5t-54 -21.5
t-20 -58.5q0 -35 20 -56.5t54 -21.5z" />
    <glyph glyph-name="ogonek" unicode="&#x2db;" horiz-adv-x="819" 
d="M563 0q-34 -28 -54 -52.5t-20 -58.5q0 -24 17 -39.5t63 -15.5h41v-137q-29 -17 -63 -26t-86 -9q-91 0 -144 40.5t-53 115.5q0 31 9.5 57.5t26 49t38.5 41.5t47 34h178v0z" />
    <glyph glyph-name="tilde" unicode="&#x2dc;" horiz-adv-x="819" 
d="M66 1233q17 96 69 144t133 48q36 0 68 -8.5t59.5 -18t51 -18t42.5 -8.5q28 0 44 14.5t24 40.5h164v-77q-17 -96 -69 -144.5t-134 -48.5q-36 0 -67.5 9t-59 19.5t-50.5 19.5t-42 9q-56 0 -70 -59h-163v78z" />
    <glyph glyph-name="hungarumlaut" unicode="&#x2dd;" horiz-adv-x="819" 
d="M154 1208l65 226h246v-86l-150 -197h-161v57zM487 1208l66 226h246v-86l-150 -197h-162v57z" />
    <glyph glyph-name="endash" unicode="&#x2013;" horiz-adv-x="936" 
d="M98 694h740v-231h-740v231z" />
    <glyph glyph-name="emdash" unicode="&#x2014;" horiz-adv-x="1571" 
d="M98 694h1375v-231h-1375v231z" />
    <glyph glyph-name="quoteleft" unicode="&#x2018;" horiz-adv-x="442" 
d="M385 1307q-62 -7 -92.5 -27.5t-30.5 -46.5q0 -14 5 -22t13.5 -14t20 -11.5t23.5 -14.5q27 -18 43 -43.5t16 -70.5q0 -29 -11.5 -54t-32.5 -43t-49 -28t-61 -10q-34 0 -64.5 11t-54 34t-37.5 58t-14 83q0 152 79.5 234t246.5 96v-131z" />
    <glyph glyph-name="quoteright" unicode="&#x2019;" horiz-adv-x="442" 
d="M57 1063q62 6 92.5 27t30.5 47q0 14 -5 22t-13 14t-19.5 11.5t-23.5 13.5q-28 19 -44 44.5t-16 70.5q0 29 11.5 54t32.5 43t49 28t61 10q34 0 64.5 -11t54 -34t37.5 -58t14 -83q0 -151 -80 -234t-246 -96v131z" />
    <glyph glyph-name="quotesinglbase" unicode="&#x201a;" horiz-adv-x="442" 
d="M57 -76q62 6 92.5 27t30.5 47q0 14 -5 22t-13 14t-19.5 11.5t-23.5 13.5q-28 19 -44 44.5t-16 70.5q0 29 11.5 54t32.5 43t49 28t61 10q34 0 64.5 -11t54 -34t37.5 -58t14 -83q0 -151 -80 -233.5t-246 -96.5v131z" />
    <glyph glyph-name="quotedblleft" unicode="&#x201c;" horiz-adv-x="842" 
d="M385 1307q-62 -7 -92.5 -27.5t-30.5 -46.5q0 -14 5 -22t13.5 -14t20 -11.5t23.5 -14.5q27 -18 43 -43.5t16 -70.5q0 -29 -11.5 -54t-32.5 -43t-49 -28t-61 -10q-34 0 -64.5 11t-54 34t-37.5 58t-14 83q0 152 79.5 234t246.5 96v-131zM784 1307q-62 -7 -92 -27.5
t-30 -46.5q0 -14 5 -22t13 -14t19.5 -11.5t23.5 -14.5q28 -18 43.5 -43.5t15.5 -70.5q0 -29 -11.5 -54t-32 -43t-48.5 -28t-61 -10q-34 0 -64.5 11t-54 34t-37.5 58t-14 83q0 151 79.5 233.5t245.5 96.5v-131z" />
    <glyph glyph-name="quotedblright" unicode="&#x201d;" horiz-adv-x="842" 
d="M457 1063q62 6 92.5 27t30.5 47q0 14 -5 22t-13.5 14t-20 11.5t-23.5 13.5q-28 19 -43.5 44.5t-15.5 70.5q0 29 11.5 54t32 43t48.5 28t61 10q34 0 64.5 -11t54 -34t37.5 -58t14 -83q0 -152 -79 -234t-246 -96v131zM57 1063q62 6 92.5 27t30.5 47q0 14 -5 22t-13 14
t-19.5 11.5t-23.5 13.5q-28 19 -44 44.5t-16 70.5q0 29 11.5 54t32.5 43t49 28t61 10q34 0 64.5 -11t54 -34t37.5 -58t14 -83q0 -151 -80 -234t-246 -96v131z" />
    <glyph glyph-name="quotedblbase" unicode="&#x201e;" horiz-adv-x="842" 
d="M457 -76q62 6 92.5 27t30.5 47q0 14 -5 22t-13.5 14t-20 11.5t-23.5 13.5q-28 19 -43.5 44.5t-15.5 70.5q0 29 11.5 54t32 43t48.5 28t61 10q34 0 64.5 -11t54 -34t37.5 -58t14 -83q0 -151 -79.5 -233.5t-245.5 -96.5v131zM57 -76q62 6 92.5 27t30.5 47q0 14 -5 22
t-13 14t-19.5 11.5t-23.5 13.5q-28 19 -44 44.5t-16 70.5q0 29 11.5 54t32.5 43t49 28t61 10q34 0 64.5 -11t54 -34t37.5 -58t14 -83q0 -151 -80 -233.5t-246 -96.5v131z" />
    <glyph glyph-name="dagger" unicode="&#x2020;" horiz-adv-x="961" 
d="M328 532v125l61 224l-225 -64h-115v289h115l225 -66l-53 211v183h289v-183l-54 -211l226 66h114v-289h-114l-226 64l62 -219v-127l-43 -635h-219z" />
    <glyph glyph-name="daggerdbl" unicode="&#x2021;" horiz-adv-x="961" 
d="M635 614l-66 -161l228 63h114v-289h-114l-228 66l56 -211v-182h-289v182l55 211l-227 -66h-115v289h115l227 -63l-65 157v109l65 162l-227 -64h-115v289h115l227 -66l-55 211v183h289v-183l-56 -211l228 66h114v-289h-114l-228 64l66 -158v-109z" />
    <glyph glyph-name="bullet" unicode="&#x2022;" horiz-adv-x="696" 
d="M348 297q-58 0 -109.5 18.5t-89.5 54t-60.5 86t-22.5 115.5q0 64 22.5 116t60.5 88t89.5 55.5t109.5 19.5q59 0 110.5 -19.5t90 -55.5t60.5 -88t22 -116q0 -65 -22 -115.5t-60.5 -86t-90 -54t-110.5 -18.5z" />
    <glyph glyph-name="ellipsis" unicode="&#x2026;" horiz-adv-x="1393" 
d="M229 -12q-35 0 -66 12.5t-53.5 34.5t-35.5 52t-13 65q0 34 13 64.5t35.5 52.5t53.5 35t66 13t65.5 -13t53.5 -35t36 -52.5t13 -64.5q0 -35 -13 -65t-36 -52t-53.5 -34.5t-65.5 -12.5zM696 -12q-35 0 -66 12.5t-53.5 34.5t-35.5 52t-13 65q0 34 13 64.5t35.5 52.5t53.5 35
t66 13q34 0 65 -13t53.5 -35t36 -52.5t13.5 -64.5q0 -35 -13.5 -65t-36 -52t-53.5 -34.5t-65 -12.5zM1163 -12q-35 0 -66 12.5t-53.5 34.5t-35.5 52t-13 65q0 34 13 64.5t35.5 52.5t53.5 35t66 13q34 0 65 -13t53.5 -35t36 -52.5t13.5 -64.5q0 -35 -13.5 -65t-36 -52
t-53.5 -34.5t-65 -12.5z" />
    <glyph glyph-name="perthousand" unicode="&#x2030;" horiz-adv-x="2458" 
d="M410 852q55 0 86.5 51.5t31.5 163.5q0 114 -31.5 164.5t-86.5 50.5q-56 0 -87.5 -50.5t-31.5 -164.5q0 -112 31.5 -163.5t87.5 -51.5zM410 684q-66 0 -128 24t-109.5 72t-76 120.5t-28.5 170.5q0 97 28.5 168.5t76 118.5t109.5 69.5t128 22.5t127.5 -22.5t109.5 -69.5
t76.5 -118.5t28.5 -168.5q0 -98 -28.5 -170.5t-76.5 -120.5t-109.5 -72t-127.5 -24zM223 -70l1010 1563h223l-1010 -1563h-223zM1274 152q56 0 87.5 51t31.5 164t-32 164t-87 51q-56 0 -87.5 -51t-31.5 -164t31.5 -164t87.5 -51zM1274 -16q-66 0 -127.5 24t-109.5 72
t-76.5 120.5t-28.5 170.5q0 97 28.5 168.5t76.5 118.5t109.5 69.5t127.5 22.5t127.5 -22.5t109.5 -69.5t76.5 -118.5t28.5 -168.5q0 -98 -28.5 -170.5t-76.5 -120.5t-109.5 -72t-127.5 -24zM2048 152q56 0 87.5 51t31.5 164t-32 164t-87 51q-56 0 -87.5 -51t-31.5 -164
t31.5 -164t87.5 -51zM2048 -16q-66 0 -127.5 24t-109.5 72t-76.5 120.5t-28.5 170.5q0 97 28.5 168.5t76.5 118.5t109.5 69.5t127.5 22.5t127.5 -22.5t109.5 -69.5t76.5 -118.5t28.5 -168.5q0 -98 -28.5 -170.5t-76.5 -120.5t-109.5 -72t-127.5 -24z" />
    <glyph glyph-name="guilsinglleft" unicode="&#x2039;" horiz-adv-x="623" 
d="M72 473v117l245 393h234v-65l-227 -379v-7l227 -385v-65h-234z" />
    <glyph glyph-name="guilsinglright" unicode="&#x203a;" horiz-adv-x="623" 
d="M305 82h-233v65l227 385v7l-227 379v65h233l246 -393v-117z" />
    <glyph glyph-name="fraction" unicode="&#x2044;" horiz-adv-x="455" 
d="M-383 -70l1010 1563h213l-1010 -1563h-213z" />
    <glyph glyph-name="Euro" unicode="&#x20ac;" 
d="M147 662v51q0 15 0.5 30.5t2.5 30.5h-101v178h125q28 118 81.5 210.5t131 156.5t177.5 97.5t220 33.5q63 0 111 -5t88.5 -15t77 -25.5t76.5 -36.5v-225h-117q-44 34 -95.5 55t-129.5 21q-65 0 -114 -17.5t-85 -51t-60.5 -83.5t-39.5 -115h383l-37 -178h-367v-49v-63h344
l-37 -178h-288q13 -69 34 -120.5t54 -84.5t80 -49.5t112 -16.5q51 0 91 8.5t73 23t60.5 34.5t52.5 43h100v-218q-35 -26 -73.5 -48t-85.5 -38t-104 -25t-128 -9q-121 0 -219 33t-172 97t-124 156.5t-75 213.5h-121v178h98z" />
    <glyph glyph-name="trademark" unicode="&#x2122;" horiz-adv-x="1401" 
d="M633 860v574h258l90 -312h2l92 312h254v-574h-166v436h-2l-133 -436h-121l-131 436h-2v-436h-141zM215 860v451h-165v123h500v-123h-165v-451h-170z" />
    <glyph glyph-name="minus" unicode="&#x2212;" 
d="M127 590v235h977v-235h-977z" />
    <glyph glyph-name="fi" unicode="&#xfb01;" horiz-adv-x="1192" 
d="M31 1075h127v82q0 77 23.5 133t67.5 92.5t107 54t142 17.5q55 0 95.5 -8t68.5 -19v-180h-68q-32 0 -57 -4t-43 -15t-27.5 -30.5t-9.5 -50.5v-72h205v-201h-205v-874h-299v874h-127v201zM776 0v1075h187q37 0 59 -7.5t34 -29t15.5 -60t3.5 -99.5v-879h-299zM928 1159
q-34 0 -63.5 12.5t-52 33.5t-35.5 50t-13 62t13 62t35.5 51t52 34.5t63.5 12.5t63.5 -12.5t51.5 -34.5t34.5 -51t12.5 -62t-12.5 -62t-34.5 -50t-51.5 -33.5t-63.5 -12.5z" />
    <glyph glyph-name="fl" unicode="&#xfb02;" horiz-adv-x="1188" 
d="M31 1075h127v82q0 77 23.5 133t67.5 92.5t107 54t142 17.5q55 0 95.5 -8t68.5 -19v-180h-68q-32 0 -57 -4t-43 -15t-27.5 -30.5t-9.5 -50.5v-72h205v-201h-205v-874h-299v874h-127v201zM776 0v1434h182q38 0 61 -6t35.5 -24t16.5 -51t4 -87v-1266h-299z" />
    <glyph glyph-name="grave.cap" horiz-adv-x="819" 
d="M332 1479l-203 176v86h303l70 -199v-63h-170z" />
    <glyph glyph-name="dieresis.cap" horiz-adv-x="819" 
d="M213 1481q-32 0 -60 11.5t-49 32t-33 47.5t-12 59q0 31 12 58t33 47t49 32t60 12t60 -12t49 -32t33 -47t12 -58q0 -32 -12 -59t-33 -47.5t-49 -32t-60 -11.5zM606 1481q-32 0 -60 11.5t-48.5 32t-32.5 47.5t-12 59q0 31 12 58t32.5 47t48.5 32t60 12t60 -12t49 -32
t33 -47t12 -58q0 -32 -12 -59t-33 -47.5t-49 -32t-60 -11.5z" />
    <glyph glyph-name="macron.cap" horiz-adv-x="819" 
d="M684 1503h-549v201h549v-201z" />
    <glyph glyph-name="acute.cap" horiz-adv-x="819" 
d="M317 1479v63l70 199h303v-86l-203 -176h-170z" />
    <glyph glyph-name="circumflex.cap" horiz-adv-x="819" 
d="M123 1554l186 195h205l178 -195v-75h-164l-125 84l-124 -84h-156v75z" />
    <glyph glyph-name="caron.cap" horiz-adv-x="819" 
d="M692 1673l-186 -194h-205l-178 194v76h164l125 -84l125 84h155v-76z" />
    <glyph glyph-name="breve.cap" horiz-adv-x="819" 
d="M410 1481q-61 0 -109 16.5t-82.5 43t-56 60t-29.5 68.5v76h189q3 -26 23.5 -47t64.5 -21q43 0 63 21t25 47h188v-76q-8 -35 -29 -68.5t-56 -60t-83 -43t-108 -16.5z" />
    <glyph glyph-name="dotaccent.cap" horiz-adv-x="819" 
d="M410 1481q-34 0 -63.5 12.5t-51.5 33.5t-34.5 50t-12.5 62t12.5 62t34.5 51t51.5 34.5t63.5 12.5t63 -12.5t51 -34.5t34.5 -51t12.5 -62t-12.5 -62t-34.5 -50t-51 -33.5t-63 -12.5z" />
    <glyph glyph-name="ring.cap" horiz-adv-x="819" 
d="M410 1483q-44 0 -83 14t-68.5 40.5t-46.5 64.5t-17 86t17 86t46.5 65t68.5 41.5t83 14.5q43 0 82.5 -14.5t68.5 -41.5t46.5 -65t17.5 -86t-17.5 -86t-46.5 -64.5t-68.5 -40.5t-82.5 -14zM410 1610q34 0 54.5 21.5t19.5 56.5q1 37 -19.5 58.5t-54.5 21.5t-54 -21.5
t-20 -58.5q0 -35 20 -56.5t54 -21.5z" />
    <glyph glyph-name="tilde.cap" horiz-adv-x="819" 
d="M66 1557q17 96 69 144t133 48q36 0 68 -8.5t59.5 -18t51 -18t42.5 -8.5q28 0 44 14.5t24 40.5h164v-77q-17 -96 -69 -144.5t-134 -48.5q-36 0 -67.5 9t-59 19.5t-50.5 19.5t-42 9q-56 0 -70 -59h-163v78z" />
    <glyph glyph-name="hungarumlaut.cap" horiz-adv-x="819" 
d="M154 1536l61 205h246v-86l-146 -176h-161v57zM487 1536l62 205h246v-86l-146 -176h-162v57z" />
    </font>
</defs>
</svg>
